<svg width="1257" height="313" viewBox="0 0 1257 313" fill="none" xmlns="http://www.w3.org/2000/svg">
<g clip-path="url(#clip0_735_2)">
<path d="M30.2404 132.326C30.2404 133.298 29.6605 133.884 27.913 134.077C26.3589 134.271 24.4181 134.077 22.4773 133.496C20.5404 133.105 18.4025 132.326 16.4656 131.547C14.5248 130.772 13.3611 129.799 12.7774 129.02C11.6175 121.437 11.2271 114.629 12.0041 108.599C12.7774 102.574 14.3315 97.323 16.4656 92.8512C18.5997 88.3795 21.3136 84.2952 24.6114 80.9898C27.753 77.8088 31.1973 74.9432 34.8952 72.4338C38.5834 70.0972 42.2677 67.9582 45.9521 66.4043C49.4353 64.9131 52.9974 63.6143 56.6225 62.5138C62.5267 60.4906 68.6518 59.1844 74.8665 58.6233C81.2687 57.8483 87.6709 57.4608 93.8798 57.4608C99.3116 57.4608 105.13 57.6546 110.952 57.8483C116.775 58.2358 122.203 58.6233 127.445 59.0108C132.1 59.4022 136.758 59.596 141.22 59.9873C145.681 60.3748 150.143 60.3748 154.218 60.3748C159.263 60.3748 163.921 59.9873 167.992 59.4061C172.067 58.821 175.755 57.6546 178.663 56.0968C179.243 55.7093 179.826 56.4843 180.41 58.4296C180.797 60.1811 181.183 62.3201 181.377 64.8466C181.574 67.377 181.574 69.7097 181.574 71.8487C181.574 73.9877 181.187 75.3478 180.607 75.933C176.919 77.4868 172.844 78.6532 168.383 79.4321C163.918 80.0133 159.456 80.4047 154.608 80.4047C149.37 80.4047 143.744 80.211 138.309 79.6297C132.684 79.0446 127.058 78.4595 121.236 77.8782C115.027 77.297 108.818 76.5142 102.416 75.933C96.2072 75.3517 89.9983 74.9603 83.9865 74.9603C80.2983 74.9603 76.4206 75.1541 72.7324 75.5416C69.0442 75.9291 65.3598 76.3205 61.8687 77.0993C57.0168 78.0681 52.5515 79.8235 48.0939 82.35C43.8258 84.6827 40.1375 88.1818 37.037 92.4637C33.9286 96.7417 31.7946 102.186 30.4376 108.797C29.4672 115.214 29.27 122.991 30.2404 132.326ZM85.7263 75.7392C86.1129 75.3517 86.8899 75.158 88.0536 75.3517C89.2212 75.5455 90.5782 76.1267 92.1285 76.9017C93.6826 77.6806 95.2329 78.6532 96.9804 79.8235C98.6039 81.0243 100.099 82.3904 101.442 83.9C102.799 85.4577 103.966 87.0116 104.74 88.5693C105.517 90.1232 105.71 91.8747 105.517 93.2348C101.621 99.9574 97.9964 106.835 94.653 113.85C91.1037 121.294 87.8663 128.884 84.9492 136.6C82.0311 144.437 79.3149 152.349 76.8034 160.327C74.2788 168.297 72.3419 176.075 70.5945 183.464C69.0403 191.051 67.6833 198.05 66.9062 204.854C66.133 211.663 65.7464 217.692 66.133 222.943C66.133 223.718 65.3559 223.524 63.8056 222.749C62.2515 221.776 60.504 220.61 58.7604 218.858C56.8754 217.324 55.123 215.632 53.5219 213.802C51.9677 212.054 50.9973 210.69 50.804 209.915C50.2241 204.273 50.2241 197.662 50.9973 190.466C51.7744 183.077 52.9381 175.493 54.6856 167.325C56.5026 159.014 58.6383 150.776 61.0878 142.629C63.6085 134.267 66.133 125.905 69.0403 117.934C71.674 110.207 74.5218 102.555 77.5804 94.9863C80.0145 88.4534 82.7324 82.0342 85.7263 75.7392ZM163.342 182.116C161.791 185.421 159.85 188.726 157.716 192.036C155.582 195.337 153.255 198.449 150.344 201.173C147.626 203.897 144.521 206.23 141.224 207.784C137.951 209.535 134.257 210.343 130.553 210.116C128.226 209.923 126.285 209.535 124.344 208.563C122.589 207.615 121.013 206.365 119.69 204.87C118.333 203.312 117.362 201.56 116.392 199.619C115.422 197.674 115.031 195.535 114.644 193.396C114.258 190.284 114.258 187.366 114.644 184.642C115.031 181.922 115.615 179.198 116.392 176.865C117.165 174.532 118.136 172.002 119.299 169.669C120.467 167.336 121.63 164.81 122.987 162.473L125.122 158.393V158.587L127.642 153.724C128.029 152.755 128.81 151.778 129.78 150.806C130.747 149.837 132.494 149.058 134.821 148.473C133.662 148.667 132.494 149.054 131.91 149.054C131.33 149.054 130.557 149.446 129.973 149.639C128.81 149.833 127.642 150.221 126.479 150.418C125.319 150.612 123.958 150.806 122.21 150.612H121.244C119.69 153.917 118.136 157.029 116.972 160.144C115.875 163.087 114.711 166.005 113.481 168.894L113.287 168.7C113.094 169.282 112.514 169.475 111.54 169.088C110.573 168.894 109.406 168.309 108.242 167.53C107.256 166.851 106.345 166.069 105.524 165.197C104.751 164.422 104.558 163.446 104.751 162.865V163.058L111.54 146.528C110.183 144.974 109.406 143.029 109.213 140.696C108.826 137.778 108.826 135.058 109.793 132.915C110.767 130.776 111.733 128.056 112.897 124.944C113.284 123.778 113.867 122.417 114.258 120.86C114.644 119.306 115.224 117.554 115.615 115.415L120.27 117.748C121.87 118.536 123.37 119.516 124.735 120.666C126.092 121.832 127.256 122.999 128.226 124.363C129.192 125.719 129.776 127.47 129.973 129.222C130.167 129.997 130.167 130.973 130.167 131.946C130.167 132.915 129.973 134.085 129.587 135.445L125.705 141.862C125.319 142.443 125.705 142.443 126.479 142.056C127.256 141.668 128.419 140.893 129.973 139.917C131.524 138.948 133.078 137.584 134.821 136.224C136.569 134.86 138.316 133.306 140.06 131.946C141.808 130.582 143.164 129.222 144.521 127.862C145.882 126.695 146.659 125.723 147.046 124.944C147.626 124.944 148.403 125.138 149.373 125.719C150.344 126.304 151.507 126.889 152.478 127.668C153.642 128.443 154.612 129.024 155.389 129.609C156.162 130.195 156.746 130.582 156.939 130.78C158.103 132.334 158.687 134.279 158.687 136.612C158.687 138.751 158.3 141.277 157.33 144.001C156.276 146.926 155.045 149.784 153.642 152.557C152.091 155.475 150.344 158.587 148.79 161.698C147.823 163.446 146.659 165.197 145.882 166.751L142.971 172.002C142.198 173.366 141.421 174.92 140.644 176.478L138.316 181.728C137.539 183.476 136.956 185.227 136.569 186.979C136.182 188.726 135.989 190.09 136.182 191.257C136.182 191.838 136.762 192.032 137.926 192.032C138.896 192.226 140.253 191.838 141.614 190.869C142.971 190.09 144.521 188.924 146.076 187.366C147.626 185.809 149.18 184.255 150.537 182.116C152.091 180.17 153.255 178.031 154.225 175.505C155.578 172.393 156.939 169.475 158.103 166.558C159.267 163.644 160.237 161.113 161.014 158.974C161.401 158.587 161.985 158.393 163.148 158.78C164.312 159.168 165.282 159.555 166.446 160.334C167.61 161.113 168.387 161.892 169.164 163.058C169.937 164.031 170.13 164.81 169.937 165.585V165.391L167.223 172.587L163.342 182.116Z" fill="white"/>
<path d="M174.213 125.518C175.38 124.937 176.931 124.937 179.258 125.905C181.392 126.684 183.72 128.048 185.854 129.99C187.992 131.741 189.735 133.88 191.289 136.019C192.84 138.158 193.423 140.491 193.033 142.63C192.84 143.409 192.646 144.769 192.26 146.52C191.873 148.272 191.289 150.217 190.706 152.356V152.162C189.932 155.27 188.958 158.773 187.988 162.664C187.055 166.466 186.214 170.29 185.467 174.134C184.742 177.674 184.159 181.242 183.72 184.829C183.333 188.134 183.333 190.858 183.526 192.803C183.526 193.578 183.526 193.966 183.333 193.966H184.69C187.215 192.997 189.349 191.443 191.289 189.3C193.226 187.161 194.974 184.829 196.528 182.108C198.078 179.384 199.435 176.466 200.796 173.355C202.073 170.394 203.301 167.412 204.48 164.411H204.287C204.48 163.83 204.674 163.245 205.06 162.853C205.254 162.272 205.644 161.691 205.837 161.3C206.808 156.049 207.585 150.411 208.555 144.575C209.522 138.743 210.303 132.52 210.883 126.297C212.046 125.715 213.987 125.715 216.121 126.49C218.448 127.265 220.776 128.629 222.91 130.187C225.026 131.883 226.918 133.843 228.539 136.019C230.089 138.158 230.673 140.491 230.48 142.63L218.255 198.833C217.091 204.083 215.928 209.14 214.764 214.003C213.6 218.669 212.24 223.338 211.076 227.419C214.616 229.374 218.048 231.517 221.36 233.84C224.657 236.172 228.152 238.311 231.643 240.838L231.45 240.644C231.837 240.838 232.223 241.225 232.61 241.613C233 242.004 233.387 242.396 233.971 242.589C235.718 243.752 236.298 245.31 235.521 246.867C234.748 248.421 233.584 249.979 231.837 251.339C230.089 252.699 228.152 253.672 226.018 254.451C223.88 255.226 222.33 255.226 221.36 254.644L214.374 249.588L205.064 243.171C200.989 251.924 195.554 258.729 188.958 263.592C182.363 268.451 173.826 270.788 163.156 270.788C159.665 270.788 156.367 270.4 152.872 269.617C149.381 268.842 146.277 267.478 143.366 265.925C140.454 264.173 137.934 262.034 135.993 259.314C134.052 256.59 132.695 253.284 131.918 249.2C131.145 244.143 131.531 239.474 133.082 235.2C134.636 230.922 136.77 227.225 140.068 223.923C143.172 220.808 147.054 218.281 151.709 216.53C156.413 214.715 161.413 213.792 166.454 213.81C169.365 213.81 172.079 214.003 174.41 214.197C176.737 214.391 179.065 214.778 181.199 215.166C183.333 215.557 185.274 216.142 187.215 216.724C189.155 217.305 191.092 218.088 193.226 218.863C194.78 213.225 196.331 207.005 197.885 200.584L196.137 202.723C195.557 203.498 194.587 204.281 193.617 205.254C192.646 206.222 191.289 207.001 190.122 207.78C188.705 208.58 187.21 209.232 185.66 209.725C184.11 210.307 182.363 210.5 180.422 210.5C176.154 210.307 173.049 208.559 170.525 205.254C168.008 201.944 166.454 197.864 165.677 193.195C165.43 192.044 165.301 190.872 165.29 189.696C165.097 188.529 165.097 187.363 165.097 186.193C165.29 181.915 165.87 176.664 166.647 170.638C167.424 164.609 168.588 158.386 169.558 152.554C170.331 147.691 171.112 143.021 171.692 138.747C172.465 134.271 172.856 130.579 173.049 127.665L174.213 125.518ZM158.888 259.504C162.186 259.504 165.097 258.922 167.811 257.752C170.529 256.586 173.049 254.834 175.38 252.502C177.816 250.03 179.964 247.29 181.783 244.333C183.72 241.225 185.467 237.722 187.215 234.026C181.586 231.89 175.574 230.724 168.974 230.526C165.87 230.526 162.572 230.914 159.081 231.693C155.59 232.472 152.486 233.444 149.768 235.002C147.259 236.406 145.077 238.327 143.366 240.64C141.815 242.973 141.425 245.697 142.009 248.809C142.395 250.948 142.975 252.695 144.143 254.059C145.306 255.416 146.663 256.586 148.411 257.365C149.961 258.14 151.709 258.725 153.456 259.112C155.59 259.306 157.334 259.504 158.888 259.504Z" fill="white"/>
<path d="M243.276 126.091C244.247 125.51 245.604 125.51 247.158 125.897C248.905 126.285 250.649 127.06 252.396 128.036C254.144 129.005 256.081 130.369 257.635 131.923C259.379 133.481 260.739 135.035 261.71 136.786C265.394 133.089 269.469 130.369 273.931 128.036C278.396 125.893 282.857 124.925 287.125 125.506C290.23 125.893 292.944 126.866 295.275 128.23C297.602 129.586 299.543 131.144 301.094 133.283C302.644 135.228 303.811 137.565 304.782 139.898C305.748 142.23 306.332 144.955 306.719 147.481C307.105 149.62 307.299 151.953 307.299 154.092C307.299 156.231 307.105 158.37 307.105 160.315C306.283 166.236 304.786 172.042 302.644 177.621C300.537 183.121 297.663 188.294 294.108 192.985C290.616 197.651 286.739 201.347 282.277 204.261C277.812 207.179 273.153 208.931 268.305 209.512C263.844 209.318 259.962 208.35 256.862 206.598C253.753 204.847 251.233 202.32 249.292 199.596C249.099 199.983 248.905 200.569 248.712 201.154C248.519 201.735 248.326 202.122 248.128 202.708C246.913 206.777 245.75 210.862 244.637 214.96C243.462 219.254 242.491 223.602 241.726 227.988C240.953 232.266 240.172 236.738 239.979 241.21C239.592 245.685 239.592 249.963 239.785 254.241C239.979 255.404 239.205 255.989 237.458 255.989C235.711 255.989 233.963 255.601 232.026 254.826C229.971 254.019 228.017 252.973 226.204 251.711C224.46 250.548 223.293 249.184 222.906 247.824C222.326 243.155 222.133 238.292 222.519 233.626C222.713 228.961 223.293 224.295 224.07 219.626C224.843 214.96 225.817 210.291 226.981 205.625C228.141 200.956 229.502 196.291 230.665 191.625C231.829 187.541 232.799 183.65 233.77 179.954C234.74 176.261 235.517 172.37 236.488 168.484V168.871C236.874 165.953 237.454 163.233 238.038 160.121C238.618 157.203 239.202 154.286 239.592 151.368C240.365 146.896 241.142 142.424 241.919 138.146C242.499 133.868 242.886 129.784 243.276 126.091ZM254.527 178.985L254.333 180.147L254.724 183.263C255.11 185.402 255.888 187.149 256.858 188.901C257.828 190.652 259.576 191.427 261.71 191.625C263.844 191.819 265.978 191.238 268.305 189.68C270.633 188.122 272.767 186.177 274.901 183.457C277.035 180.926 278.976 177.815 280.723 174.509C282.467 171.204 284.021 167.705 285.378 164.202C286.739 160.703 287.512 157.397 288.096 154.092C288.676 150.786 288.676 147.869 288.289 145.342C287.902 142.424 286.348 140.87 284.021 140.87C281.887 140.677 279.753 141.064 277.619 141.839C275.485 142.618 273.157 143.784 271.023 145.148C268.731 146.615 266.643 148.381 264.814 150.399C262.874 152.538 261.126 154.479 259.576 157.01C258.799 160.509 258.022 164.206 257.051 168.092C256.085 171.983 255.308 175.676 254.531 178.981L254.527 178.985ZM263.075 256.384C261.331 256.384 259.777 255.803 258.806 254.633C258.235 254.08 257.784 253.415 257.484 252.678C257.184 251.941 257.04 251.15 257.063 250.355C257.063 248.216 257.836 246.468 259.584 244.716C260.316 243.968 261.192 243.376 262.159 242.975C263.125 242.574 264.163 242.373 265.209 242.384C266.956 242.384 268.506 242.965 269.481 244.131C270.64 245.298 271.224 246.662 271.224 248.409C271.224 250.548 270.451 252.3 268.704 254.051C267.97 254.8 267.094 255.393 266.127 255.793C265.159 256.194 264.121 256.395 263.075 256.384ZM317.211 237.342C317.791 237.149 318.371 237.342 318.758 237.536C319.148 237.73 319.341 238.315 319.148 238.9C318.955 239.288 318.955 239.481 318.761 239.869C318.568 240.256 318.375 240.648 317.984 241.233C317.404 242.202 316.821 243.178 316.044 244.344C315.27 245.507 314.493 246.483 313.716 247.258C312.166 249.01 310.418 250.761 308.284 252.122C306.271 253.392 304.124 254.436 301.882 255.233C299.555 255.814 297.224 256.202 294.896 256.008C292.466 255.818 290.095 255.159 287.914 254.067C285.583 252.9 284.033 251.149 282.869 249.01C281.705 246.871 281.121 244.538 280.928 242.008C280.735 239.481 281.121 236.955 281.701 234.231C282.478 231.507 283.449 228.98 285.003 226.841C286.553 224.508 288.301 222.563 290.628 221.009C292.762 219.451 295.48 218.479 298.387 218.091C300.327 217.864 302.289 217.93 304.21 218.285C305.957 218.673 307.507 219.451 308.864 220.812C310.028 221.982 310.805 223.148 311.389 224.896C311.969 226.454 312.162 228.007 311.969 229.565C311.969 231.119 311.389 232.677 310.612 234.037C309.839 235.397 308.864 236.563 307.314 237.149C305.76 237.924 304.21 238.117 302.659 237.924C301.298 237.536 300.135 236.955 299.164 236.374C298.198 235.591 297.614 235.01 297.417 234.231C297.224 233.456 297.61 233.064 298.387 233.064C299.748 233.258 301.105 232.677 302.269 231.704C303.432 230.732 304.21 229.565 304.793 228.399C305.18 227.229 305.373 226.26 305.18 225.675C304.987 224.9 304.793 224.508 304.21 224.121C303.63 223.733 303.046 223.733 302.269 223.927C301.496 224.121 300.525 224.315 299.748 224.896C298.387 225.675 297.224 226.841 296.06 228.593C294.9 230.146 293.926 231.898 292.955 233.646C291.989 235.397 291.598 237.342 291.405 239.288C291.212 241.233 291.405 242.787 291.985 244.344C292.565 245.701 293.346 246.871 294.51 247.844C295.582 248.753 296.839 249.416 298.194 249.789C299.555 250.176 301.105 250.176 302.853 249.789C304.596 249.401 306.344 248.622 308.091 247.456C309.444 246.483 310.805 245.317 311.969 243.953C313.132 242.593 314.296 241.233 315.267 239.675C315.653 239.094 315.85 238.706 316.237 238.513C316.624 238.315 316.821 237.342 317.211 237.342Z" fill="white"/>
<path d="M353.282 239.303C353.475 238.916 353.862 238.722 354.252 238.722C354.639 238.722 355.025 238.916 355.218 239.303C355.416 239.691 355.609 240.276 355.416 241.055C355.416 241.83 355.029 242.806 354.449 243.973C353.668 245.333 352.895 246.693 351.731 247.859C350.761 249.026 349.597 249.998 348.236 250.777C346.879 251.552 345.329 252.137 343.582 252.722C341.834 253.11 339.7 253.304 337.373 253.11C334.462 255.055 331.554 256.028 328.643 256.221C325.539 256.415 323.014 255.64 320.493 254.276C318.064 252.841 316.16 250.66 315.062 248.057C313.705 245.333 313.314 241.834 313.898 237.749C314.285 235.417 314.864 233.08 315.642 230.747C316.419 228.414 317.582 226.469 319.136 224.722C319.716 223.943 320.493 223.358 321.271 222.776C322.044 222.195 323.014 221.61 323.985 221.025C324.955 220.637 325.925 220.25 326.896 220.056C327.866 219.858 328.836 220.056 329.807 220.25C330 220.056 330.193 220.056 330.387 220.056C330.58 220.056 330.773 219.858 330.967 219.858C333.882 218.692 336.402 218.301 338.536 218.886C340.67 219.273 342.418 220.246 343.582 221.804C344.939 223.358 345.716 225.109 346.296 227.442C346.879 229.775 346.879 232.107 346.682 234.638C346.489 236.97 345.909 239.109 344.942 241.442C344.162 243.775 342.998 245.72 341.641 247.665C342.998 247.859 344.359 247.859 345.522 247.472C346.682 247.084 347.656 246.305 348.627 245.526C349.593 244.751 350.37 243.779 350.954 242.806C351.534 241.834 352.698 240.276 353.282 239.303ZM323.598 243.775C324.178 245.72 324.955 247.278 326.316 248.057C327.669 249.026 329.223 249.219 330.777 248.444C328.836 246.499 327.479 243.973 326.509 241.248C325.539 238.331 324.955 235.61 324.955 232.886C324.182 234.444 323.598 236.192 323.211 238.331C323.018 240.276 323.211 242.217 323.598 243.775ZM339.893 233.859C340.28 231.332 340.087 229.193 339.7 227.636C339.12 226.082 338.343 225.109 337.566 224.722C336.6 224.334 335.822 224.722 334.852 225.69C333.882 226.663 333.298 228.608 333.105 231.332C332.911 233.471 333.105 235.61 333.684 237.749C334.268 239.888 335.239 241.834 336.402 243.581C337.373 242.221 337.953 240.667 338.73 238.916C339.116 237.164 339.7 235.61 339.893 233.859Z" fill="white"/>
<path d="M419.654 240.062C419.852 239.675 420.045 239.481 420.431 239.675C420.818 239.675 421.015 240.062 421.208 240.45C421.402 240.841 421.402 241.426 421.402 242.399C421.402 243.174 421.015 244.344 420.431 245.511C419.654 246.871 418.881 248.425 417.717 249.789C416.634 251.101 415.396 252.276 414.029 253.288C412.672 254.26 411.118 255.039 409.568 255.62C408.014 256.202 406.27 256.399 404.716 256.202C402.002 255.814 399.868 254.845 398.7 253.288C397.347 251.536 396.566 249.397 396.373 246.871C396.179 245.191 396.179 243.494 396.373 241.814C396.566 240.066 396.759 238.315 397.15 236.563C397.537 235.401 397.73 234.037 398.116 232.479L399.284 227.813C399.284 226.26 399.091 225.481 398.507 225.674C397.927 225.674 396.957 226.256 395.986 227.426C394.823 228.588 393.659 230.146 392.298 232.091C390.815 234.282 389.457 236.555 388.231 238.9C386.87 241.426 385.513 243.953 384.349 246.677C383.24 249.281 382.268 251.941 381.438 254.648C381.245 255.229 381.052 255.62 380.858 256.012C380.665 256.399 380.275 256.399 379.691 256.399C378.724 256.399 377.754 256.399 376.783 256.012C375.813 255.624 374.843 255.233 374.066 254.648C373.279 254.049 372.675 253.24 372.322 252.315C371.935 251.346 371.738 250.37 372.129 249.203C372.515 247.064 373.095 245.119 373.482 242.98C373.872 240.841 374.456 238.9 375.036 236.757C375.229 236.176 375.229 235.594 375.423 235.009C375.616 234.428 375.809 233.843 375.809 233.258C376.006 232.483 376.006 231.898 376.2 231.313C376.393 230.731 376.586 230.15 376.78 229.367C377.17 227.426 377.17 226.062 376.78 225.674C376.393 225.287 375.62 225.481 374.843 226.062C374.069 226.643 372.902 228.007 371.545 229.759C370.184 231.506 369.02 233.452 367.663 235.788C366.215 238.233 364.919 240.766 363.782 243.372C362.518 245.957 361.417 248.619 360.484 251.342C360.291 252.121 360.098 252.706 359.904 253.288L359.324 255.039C359.127 255.62 359.127 255.814 358.934 255.814C358.741 255.814 358.354 256.008 357.77 256.008C356.8 256.008 355.829 256.008 354.859 255.62C353.889 255.233 352.918 254.845 352.141 254.26C351.354 253.661 350.75 252.853 350.398 251.928C350.011 250.955 349.818 249.982 350.204 248.816C351.364 243.759 352.532 238.896 353.695 234.037C354.859 229.174 356.023 224.31 357.186 219.257C357.186 218.87 357.38 218.676 357.766 218.676C358.934 218.482 360.291 218.482 361.455 218.676C362.618 218.676 363.589 219.064 364.366 219.451C365.139 219.839 365.723 220.618 366.113 221.59C366.5 222.563 366.5 223.729 366.113 225.287L365.533 228.201C365.336 229.174 365.143 230.146 364.752 231.119C365.916 228.786 367.08 226.647 368.441 224.702C369.797 222.757 371.738 221.203 373.872 220.036C374.646 219.649 375.423 219.257 376.393 219.064C377.363 218.87 378.527 218.676 379.691 218.482H382.992C383.959 218.482 384.929 218.87 385.706 219.064C386.677 219.451 387.647 220.226 388.034 221.203C388.614 222.171 388.614 223.535 388.227 225.287C387.84 227.231 387.454 229.175 387.067 231.119C388.227 228.786 389.395 226.647 390.752 224.702C392.109 222.757 394.049 221.203 396.183 220.036C396.957 219.455 398.124 219.064 399.288 218.87C400.452 218.676 401.809 218.482 403.169 218.676C404.526 218.87 405.69 219.064 406.854 219.645C408.017 220.226 408.795 221.009 409.378 221.978C410.152 223.342 410.349 224.702 410.349 226.453C410.349 228.201 409.958 229.759 409.378 231.506C408.988 232.87 408.601 234.037 408.211 235.397C408.017 236.761 407.631 237.927 407.244 239.287C407.047 240.45 406.854 241.426 406.854 242.399C406.66 243.368 406.66 244.344 406.854 245.119C406.854 247.258 407.631 248.816 408.795 249.397C409.958 249.978 411.512 249.785 413.449 248.428C414.226 247.843 414.81 247.258 415.583 246.483L417.331 244.147C417.915 243.372 418.301 242.593 418.688 242.008C419.078 241.426 419.272 240.454 419.658 240.066L419.654 240.062Z" fill="white"/>
<path d="M569.435 148V94.8557H601.509V100.565H575.871V118.522H599.848V124.23H575.871V142.291H601.924V148H569.435ZM637.397 131.704V108.142H643.521V148H637.397V141.253H636.982C636.047 143.277 634.594 144.999 632.622 146.417C630.65 147.818 628.159 148.519 625.149 148.519C622.658 148.519 620.443 147.974 618.506 146.884C616.568 145.777 615.046 144.116 613.939 141.902C612.831 139.67 612.278 136.859 612.278 133.468V108.142H618.402V133.053C618.402 135.959 619.215 138.278 620.841 140.008C622.485 141.738 624.578 142.603 627.121 142.603C628.643 142.603 630.192 142.213 631.766 141.435C633.357 140.656 634.689 139.463 635.762 137.854C636.852 136.245 637.397 134.195 637.397 131.704ZM654.737 148V108.142H660.654V114.162H661.069C661.796 112.19 663.11 110.59 665.013 109.361C666.916 108.133 669.062 107.519 671.449 107.519C671.899 107.519 672.461 107.528 673.136 107.545C673.81 107.562 674.321 107.588 674.667 107.623V113.851C674.459 113.799 673.983 113.721 673.239 113.617C672.513 113.496 671.743 113.435 670.93 113.435C668.992 113.435 667.262 113.842 665.74 114.655C664.235 115.451 663.041 116.558 662.159 117.977C661.294 119.378 660.862 120.978 660.862 122.777V148H654.737ZM696.905 148.83C693.307 148.83 690.15 147.974 687.434 146.261C684.735 144.549 682.624 142.153 681.102 139.073C679.597 135.994 678.844 132.396 678.844 128.278C678.844 124.127 679.597 120.502 681.102 117.406C682.624 114.309 684.735 111.904 687.434 110.192C690.15 108.479 693.307 107.623 696.905 107.623C700.504 107.623 703.652 108.479 706.351 110.192C709.067 111.904 711.177 114.309 712.682 117.406C714.205 120.502 714.966 124.127 714.966 128.278C714.966 132.396 714.205 135.994 712.682 139.073C711.177 142.153 709.067 144.549 706.351 146.261C703.652 147.974 700.504 148.83 696.905 148.83ZM696.905 143.329C699.639 143.329 701.887 142.628 703.652 141.227C705.417 139.826 706.723 137.984 707.57 135.7C708.418 133.416 708.842 130.943 708.842 128.278C708.842 125.614 708.418 123.132 707.57 120.831C706.723 118.53 705.417 116.67 703.652 115.252C701.887 113.833 699.639 113.124 696.905 113.124C694.172 113.124 691.923 113.833 690.158 115.252C688.394 116.67 687.088 118.53 686.24 120.831C685.392 123.132 684.969 125.614 684.969 128.278C684.969 130.943 685.392 133.416 686.24 135.7C687.088 137.984 688.394 139.826 690.158 141.227C691.923 142.628 694.172 143.329 696.905 143.329ZM724.314 162.947V108.142H730.231V114.473H730.957C731.407 113.781 732.03 112.899 732.826 111.827C733.639 110.737 734.798 109.768 736.303 108.92C737.825 108.055 739.884 107.623 742.479 107.623C745.835 107.623 748.793 108.462 751.353 110.14C753.914 111.818 755.912 114.197 757.348 117.276C758.784 120.355 759.502 123.988 759.502 128.175C759.502 132.396 758.784 136.055 757.348 139.151C755.912 142.231 753.922 144.618 751.379 146.313C748.836 147.991 745.904 148.83 742.583 148.83C740.022 148.83 737.972 148.407 736.433 147.559C734.893 146.694 733.708 145.716 732.878 144.627C732.047 143.519 731.407 142.603 730.957 141.876H730.438V162.947H724.314ZM730.334 128.071C730.334 131.081 730.776 133.736 731.658 136.037C732.54 138.321 733.829 140.111 735.524 141.409C737.22 142.689 739.296 143.329 741.752 143.329C744.313 143.329 746.449 142.654 748.162 141.305C749.892 139.938 751.189 138.105 752.054 135.804C752.936 133.486 753.378 130.908 753.378 128.071C753.378 125.268 752.945 122.743 752.08 120.494C751.232 118.227 749.944 116.437 748.214 115.122C746.501 113.79 744.347 113.124 741.752 113.124C739.261 113.124 737.168 113.755 735.472 115.018C733.777 116.264 732.497 118.011 731.632 120.26C730.767 122.492 730.334 125.095 730.334 128.071ZM785.555 148.83C781.714 148.83 778.401 147.983 775.616 146.287C772.848 144.575 770.712 142.187 769.207 139.125C767.719 136.046 766.975 132.465 766.975 128.382C766.975 124.3 767.719 120.701 769.207 117.587C770.712 114.456 772.805 112.017 775.486 110.27C778.185 108.505 781.334 107.623 784.932 107.623C787.008 107.623 789.058 107.969 791.082 108.661C793.106 109.353 794.948 110.477 796.609 112.034C798.27 113.574 799.593 115.615 800.579 118.158C801.566 120.701 802.059 123.832 802.059 127.552V130.147H771.334V124.853H795.831C795.831 122.604 795.381 120.597 794.481 118.833C793.599 117.068 792.336 115.676 790.693 114.655C789.067 113.634 787.146 113.124 784.932 113.124C782.493 113.124 780.382 113.73 778.6 114.941C776.836 116.134 775.478 117.691 774.526 119.611C773.575 121.532 773.099 123.59 773.099 125.787V129.316C773.099 132.327 773.618 134.878 774.656 136.972C775.711 139.047 777.173 140.63 779.041 141.72C780.91 142.793 783.081 143.329 785.555 143.329C787.164 143.329 788.617 143.104 789.914 142.654C791.229 142.187 792.362 141.495 793.314 140.578C794.265 139.644 795 138.485 795.519 137.101L801.436 138.762C800.813 140.769 799.766 142.533 798.296 144.056C796.825 145.561 795.009 146.737 792.847 147.585C790.684 148.415 788.253 148.83 785.555 148.83ZM849.26 108.142V113.332H828.605V108.142H849.26ZM834.625 98.5924H840.749V136.582C840.749 138.312 841 139.61 841.502 140.475C842.021 141.322 842.678 141.893 843.474 142.187C844.287 142.464 845.143 142.603 846.043 142.603C846.717 142.603 847.271 142.568 847.703 142.499C848.136 142.412 848.482 142.343 848.741 142.291L849.987 147.792C849.572 147.948 848.992 148.104 848.248 148.259C847.505 148.432 846.562 148.519 845.42 148.519C843.69 148.519 841.995 148.147 840.334 147.403C838.69 146.659 837.324 145.526 836.234 144.004C835.161 142.481 834.625 140.561 834.625 138.243V98.5924ZM858.472 148V108.142H864.389V114.162H864.804C865.531 112.19 866.845 110.59 868.748 109.361C870.651 108.133 872.797 107.519 875.184 107.519C875.634 107.519 876.196 107.528 876.871 107.545C877.545 107.562 878.056 107.588 878.402 107.623V113.851C878.194 113.799 877.718 113.721 876.974 113.617C876.248 113.496 875.478 113.435 874.665 113.435C872.727 113.435 870.997 113.842 869.475 114.655C867.97 115.451 866.776 116.558 865.894 117.977C865.029 119.378 864.597 120.978 864.597 122.777V148H858.472ZM885.661 148V108.142H891.785V148H885.661ZM888.775 101.499C887.581 101.499 886.552 101.092 885.687 100.279C884.839 99.466 884.415 98.4886 884.415 97.3468C884.415 96.2051 884.839 95.2276 885.687 94.4146C886.552 93.6015 887.581 93.1949 888.775 93.1949C889.969 93.1949 890.989 93.6015 891.837 94.4146C892.702 95.2276 893.134 96.2051 893.134 97.3468C893.134 98.4886 892.702 99.466 891.837 100.279C890.989 101.092 889.969 101.499 888.775 101.499ZM903.002 162.947V108.142H908.918V114.473H909.645C910.094 113.781 910.717 112.899 911.513 111.827C912.326 110.737 913.485 109.768 914.99 108.92C916.513 108.055 918.571 107.623 921.166 107.623C924.522 107.623 927.48 108.462 930.041 110.14C932.601 111.818 934.599 114.197 936.035 117.276C937.471 120.355 938.189 123.988 938.189 128.175C938.189 132.396 937.471 136.055 936.035 139.151C934.599 142.231 932.61 144.618 930.067 146.313C927.524 147.991 924.591 148.83 921.27 148.83C918.71 148.83 916.66 148.407 915.12 147.559C913.58 146.694 912.395 145.716 911.565 144.627C910.734 143.519 910.094 142.603 909.645 141.876H909.126V162.947H903.002ZM909.022 128.071C909.022 131.081 909.463 133.736 910.345 136.037C911.228 138.321 912.516 140.111 914.212 141.409C915.907 142.689 917.983 143.329 920.44 143.329C923 143.329 925.136 142.654 926.849 141.305C928.579 139.938 929.876 138.105 930.741 135.804C931.624 133.486 932.065 130.908 932.065 128.071C932.065 125.268 931.632 122.743 930.767 120.494C929.92 118.227 928.631 116.437 926.901 115.122C925.188 113.79 923.034 113.124 920.44 113.124C917.948 113.124 915.855 113.755 914.16 115.018C912.464 116.264 911.184 118.011 910.319 120.26C909.454 122.492 909.022 125.095 909.022 128.071ZM975.764 117.068L970.262 118.625C969.916 117.708 969.406 116.818 968.731 115.953C968.074 115.07 967.174 114.344 966.033 113.773C964.891 113.202 963.429 112.916 961.647 112.916C959.208 112.916 957.175 113.479 955.549 114.603C953.94 115.71 953.136 117.12 953.136 118.833C953.136 120.355 953.689 121.558 954.797 122.44C955.904 123.322 957.634 124.057 959.986 124.646L965.903 126.099C969.467 126.964 972.122 128.287 973.869 130.069C975.617 131.834 976.49 134.108 976.49 136.894C976.49 139.177 975.833 141.219 974.518 143.018C973.221 144.817 971.404 146.235 969.069 147.273C966.733 148.311 964.017 148.83 960.921 148.83C956.855 148.83 953.49 147.948 950.826 146.184C948.162 144.419 946.475 141.841 945.766 138.451L951.579 136.997C952.132 139.143 953.179 140.751 954.719 141.824C956.276 142.897 958.308 143.433 960.817 143.433C963.671 143.433 965.937 142.827 967.616 141.616C969.311 140.388 970.159 138.918 970.159 137.205C970.159 135.821 969.674 134.662 968.705 133.728C967.737 132.776 966.249 132.067 964.242 131.6L957.599 130.043C953.949 129.178 951.267 127.837 949.555 126.021C947.859 124.187 947.012 121.895 947.012 119.144C947.012 116.895 947.643 114.906 948.906 113.176C950.186 111.446 951.925 110.088 954.122 109.102C956.336 108.116 958.845 107.623 961.647 107.623C965.591 107.623 968.688 108.488 970.937 110.218C973.203 111.948 974.812 114.231 975.764 117.068ZM1015.29 148L1003.15 108.142H1009.58L1018.2 138.658H1018.61L1027.12 108.142H1033.66L1042.07 138.554H1042.49L1051.1 108.142H1057.54L1045.39 148H1039.37L1030.65 117.38H1030.03L1021.31 148H1015.29ZM1065.63 148V108.142H1071.76V148H1065.63ZM1068.75 101.499C1067.55 101.499 1066.52 101.092 1065.66 100.279C1064.81 99.466 1064.39 98.4886 1064.39 97.3468C1064.39 96.2051 1064.81 95.2276 1065.66 94.4146C1066.52 93.6015 1067.55 93.1949 1068.75 93.1949C1069.94 93.1949 1070.96 93.6015 1071.81 94.4146C1072.67 95.2276 1073.11 96.2051 1073.11 97.3468C1073.11 98.4886 1072.67 99.466 1071.81 100.279C1070.96 101.092 1069.94 101.499 1068.75 101.499ZM1100.31 108.142V113.332H1079.65V108.142H1100.31ZM1085.67 98.5924H1091.8V136.582C1091.8 138.312 1092.05 139.61 1092.55 140.475C1093.07 141.322 1093.73 141.893 1094.52 142.187C1095.33 142.464 1096.19 142.603 1097.09 142.603C1097.76 142.603 1098.32 142.568 1098.75 142.499C1099.18 142.412 1099.53 142.343 1099.79 142.291L1101.03 147.792C1100.62 147.948 1100.04 148.104 1099.3 148.259C1098.55 148.432 1097.61 148.519 1096.47 148.519C1094.74 148.519 1093.04 148.147 1091.38 147.403C1089.74 146.659 1088.37 145.526 1087.28 144.004C1086.21 142.481 1085.67 140.561 1085.67 138.243V98.5924ZM1116.5 124.023V148H1110.38V94.8557H1116.5V114.37H1117.02C1117.95 112.311 1119.35 110.676 1121.22 109.465C1123.11 108.237 1125.62 107.623 1128.75 107.623C1131.46 107.623 1133.84 108.168 1135.88 109.258C1137.93 110.33 1139.51 111.982 1140.63 114.214C1141.77 116.428 1142.35 119.248 1142.35 122.673V148H1136.22V123.089C1136.22 119.923 1135.4 117.475 1133.76 115.745C1132.13 113.998 1129.87 113.124 1126.98 113.124C1124.98 113.124 1123.18 113.548 1121.59 114.396C1120.01 115.243 1118.77 116.48 1117.85 118.106C1116.95 119.732 1116.5 121.705 1116.5 124.023ZM1177.11 148H1170.36L1189.88 94.8557H1196.52L1216.04 148H1209.29L1193.41 103.263H1192.99L1177.11 148ZM1179.6 127.241H1206.8V132.949H1179.6V127.241ZM1230.75 94.8557V148H1224.31V94.8557H1230.75ZM566.529 188.565V182.856H606.387V188.565H589.676V236H583.241V188.565H566.529ZM611.35 236V196.142H617.267V202.162H617.682C618.408 200.19 619.723 198.59 621.626 197.361C623.529 196.133 625.674 195.519 628.062 195.519C628.511 195.519 629.074 195.528 629.748 195.545C630.423 195.562 630.933 195.588 631.279 195.623V201.851C631.072 201.799 630.596 201.721 629.852 201.617C629.125 201.496 628.356 201.435 627.543 201.435C625.605 201.435 623.875 201.842 622.353 202.655C620.848 203.451 619.654 204.558 618.772 205.977C617.907 207.378 617.474 208.978 617.474 210.777V236H611.35ZM643.696 250.947C642.658 250.947 641.733 250.86 640.919 250.687C640.106 250.532 639.544 250.376 639.233 250.22L640.79 244.823C642.277 245.203 643.592 245.342 644.734 245.238C645.876 245.134 646.888 244.624 647.77 243.707C648.67 242.807 649.491 241.346 650.235 239.322L651.377 236.208L636.638 196.142H643.281L654.283 227.904H654.699L665.701 196.142H672.344L655.425 241.813C654.664 243.871 653.721 245.575 652.597 246.925C651.472 248.291 650.166 249.303 648.678 249.961C647.208 250.618 645.547 250.947 643.696 250.947ZM707.103 212.023V236H700.979V196.142H706.896V202.37H707.415C708.349 200.346 709.767 198.719 711.67 197.491C713.573 196.246 716.03 195.623 719.04 195.623C721.739 195.623 724.1 196.176 726.124 197.284C728.148 198.373 729.723 200.034 730.847 202.266C731.971 204.48 732.534 207.283 732.534 210.673V236H726.41V211.089C726.41 207.957 725.597 205.518 723.97 203.771C722.344 202.006 720.113 201.124 717.275 201.124C715.321 201.124 713.573 201.548 712.034 202.396C710.511 203.243 709.309 204.48 708.427 206.106C707.544 207.732 707.103 209.705 707.103 212.023ZM759.917 236.83C756.318 236.83 753.161 235.974 750.445 234.261C747.747 232.549 745.636 230.153 744.114 227.073C742.609 223.994 741.856 220.396 741.856 216.278C741.856 212.127 742.609 208.502 744.114 205.406C745.636 202.309 747.747 199.904 750.445 198.192C753.161 196.479 756.318 195.623 759.917 195.623C763.515 195.623 766.664 196.479 769.362 198.192C772.078 199.904 774.189 202.309 775.694 205.406C777.216 208.502 777.978 212.127 777.978 216.278C777.978 220.396 777.216 223.994 775.694 227.073C774.189 230.153 772.078 232.549 769.362 234.261C766.664 235.974 763.515 236.83 759.917 236.83ZM759.917 231.329C762.65 231.329 764.899 230.628 766.664 229.227C768.428 227.826 769.734 225.984 770.582 223.7C771.43 221.416 771.853 218.943 771.853 216.278C771.853 213.614 771.43 211.132 770.582 208.831C769.734 206.53 768.428 204.67 766.664 203.252C764.899 201.833 762.65 201.124 759.917 201.124C757.183 201.124 754.934 201.833 753.17 203.252C751.405 204.67 750.099 206.53 749.252 208.831C748.404 211.132 747.98 213.614 747.98 216.278C747.98 218.943 748.404 221.416 749.252 223.7C750.099 225.984 751.405 227.826 753.17 229.227C754.934 230.628 757.183 231.329 759.917 231.329ZM795 236L782.856 196.142H789.291L797.907 226.658H798.322L806.833 196.142H813.372L821.78 226.554H822.195L830.81 196.142H837.246L825.102 236H819.081L810.362 205.38H809.74L801.021 236H795ZM877.623 236.934C875.097 236.934 872.805 236.458 870.747 235.507C868.688 234.538 867.053 233.146 865.842 231.329C864.631 229.495 864.026 227.281 864.026 224.686C864.026 222.403 864.475 220.551 865.375 219.133C866.275 217.697 867.477 216.573 868.982 215.759C870.487 214.946 872.148 214.341 873.964 213.943C875.798 213.528 877.64 213.199 879.491 212.957C881.913 212.646 883.877 212.412 885.382 212.256C886.904 212.083 888.011 211.798 888.703 211.4C889.413 211.002 889.767 210.31 889.767 209.324V209.116C889.767 206.556 889.067 204.567 887.665 203.148C886.282 201.73 884.18 201.02 881.36 201.02C878.436 201.02 876.144 201.66 874.483 202.941C872.822 204.221 871.655 205.587 870.98 207.041L865.167 204.965C866.205 202.543 867.589 200.657 869.319 199.308C871.067 197.941 872.97 196.989 875.028 196.453C877.104 195.9 879.145 195.623 881.152 195.623C882.432 195.623 883.903 195.778 885.564 196.09C887.242 196.384 888.859 196.998 890.416 197.932C891.99 198.866 893.297 200.276 894.334 202.162C895.372 204.048 895.891 206.573 895.891 209.739V236H889.767V230.603H889.456C889.041 231.468 888.349 232.393 887.38 233.379C886.411 234.365 885.122 235.204 883.514 235.896C881.905 236.588 879.941 236.934 877.623 236.934ZM878.557 231.433C880.979 231.433 883.021 230.957 884.681 230.006C886.359 229.054 887.622 227.826 888.47 226.321C889.335 224.816 889.767 223.233 889.767 221.572V215.967C889.508 216.278 888.937 216.564 888.055 216.823C887.19 217.066 886.186 217.282 885.045 217.472C883.92 217.645 882.822 217.801 881.749 217.939C880.694 218.06 879.837 218.164 879.18 218.251C877.588 218.458 876.101 218.796 874.717 219.263C873.35 219.712 872.243 220.396 871.395 221.313C870.565 222.212 870.15 223.441 870.15 224.997C870.15 227.125 870.937 228.734 872.511 229.824C874.103 230.897 876.118 231.433 878.557 231.433ZM924.403 196.142V201.332H903.748V196.142H924.403ZM909.768 186.592H915.892V224.582C915.892 226.312 916.143 227.61 916.644 228.475C917.163 229.322 917.821 229.893 918.617 230.187C919.43 230.464 920.286 230.603 921.186 230.603C921.86 230.603 922.414 230.568 922.846 230.499C923.279 230.412 923.625 230.343 923.884 230.291L925.13 235.792C924.715 235.948 924.135 236.104 923.391 236.259C922.647 236.432 921.705 236.519 920.563 236.519C918.833 236.519 917.137 236.147 915.477 235.403C913.833 234.659 912.467 233.526 911.377 232.004C910.304 230.481 909.768 228.561 909.768 226.243V186.592ZM971.501 196.142V201.332H950.846V196.142H971.501ZM956.866 186.592H962.99V224.582C962.99 226.312 963.241 227.61 963.743 228.475C964.262 229.322 964.919 229.893 965.715 230.187C966.528 230.464 967.384 230.603 968.284 230.603C968.958 230.603 969.512 230.568 969.944 230.499C970.377 230.412 970.723 230.343 970.982 230.291L972.228 235.792C971.813 235.948 971.233 236.104 970.489 236.259C969.746 236.432 968.803 236.519 967.661 236.519C965.931 236.519 964.236 236.147 962.575 235.403C960.931 234.659 959.565 233.526 958.475 232.004C957.402 230.481 956.866 228.561 956.866 226.243V186.592ZM980.713 236V196.142H986.63V202.162H987.045C987.772 200.19 989.086 198.59 990.989 197.361C992.892 196.133 995.038 195.519 997.425 195.519C997.875 195.519 998.437 195.528 999.112 195.545C999.786 195.562 1000.3 195.588 1000.64 195.623V201.851C1000.43 201.799 999.959 201.721 999.215 201.617C998.489 201.496 997.719 201.435 996.906 201.435C994.968 201.435 993.238 201.842 991.716 202.655C990.211 203.451 989.017 204.558 988.135 205.977C987.27 207.378 986.838 208.978 986.838 210.777V236H980.713ZM1013.06 250.947C1012.02 250.947 1011.1 250.86 1010.28 250.687C1009.47 250.532 1008.91 250.376 1008.6 250.22L1010.15 244.823C1011.64 245.203 1012.96 245.342 1014.1 245.238C1015.24 245.134 1016.25 244.624 1017.13 243.707C1018.03 242.807 1018.85 241.346 1019.6 239.322L1020.74 236.208L1006 196.142H1012.64L1023.65 227.904H1024.06L1035.06 196.142H1041.71L1024.79 241.813C1024.03 243.871 1023.08 245.575 1021.96 246.925C1020.84 248.291 1019.53 249.303 1018.04 249.961C1016.57 250.618 1014.91 250.947 1013.06 250.947ZM1049.79 250.947V196.142H1055.71V202.473H1056.43C1056.88 201.781 1057.51 200.899 1058.3 199.827C1059.12 198.737 1060.27 197.768 1061.78 196.92C1063.3 196.055 1065.36 195.623 1067.96 195.623C1071.31 195.623 1074.27 196.462 1076.83 198.14C1079.39 199.818 1081.39 202.197 1082.82 205.276C1084.26 208.355 1084.98 211.988 1084.98 216.175C1084.98 220.396 1084.26 224.055 1082.82 227.151C1081.39 230.231 1079.4 232.618 1076.86 234.313C1074.31 235.991 1071.38 236.83 1068.06 236.83C1065.5 236.83 1063.45 236.407 1061.91 235.559C1060.37 234.694 1059.18 233.716 1058.35 232.627C1057.52 231.519 1056.88 230.603 1056.43 229.876H1055.91V250.947H1049.79ZM1055.81 216.071C1055.81 219.081 1056.25 221.736 1057.13 224.037C1058.02 226.321 1059.31 228.111 1061 229.409C1062.7 230.689 1064.77 231.329 1067.23 231.329C1069.79 231.329 1071.93 230.654 1073.64 229.305C1075.37 227.938 1076.67 226.105 1077.53 223.804C1078.41 221.486 1078.85 218.908 1078.85 216.071C1078.85 213.268 1078.42 210.743 1077.56 208.494C1076.71 206.227 1075.42 204.437 1073.69 203.122C1071.98 201.79 1069.82 201.124 1067.23 201.124C1064.74 201.124 1062.64 201.755 1060.95 203.018C1059.25 204.264 1057.97 206.011 1057.11 208.26C1056.24 210.492 1055.81 213.095 1055.81 216.071ZM1098.78 236.415C1097.5 236.415 1096.4 235.957 1095.49 235.04C1094.57 234.123 1094.11 233.024 1094.11 231.744C1094.11 230.464 1094.57 229.366 1095.49 228.449C1096.4 227.532 1097.5 227.073 1098.78 227.073C1100.06 227.073 1101.16 227.532 1102.08 228.449C1103 229.366 1103.45 230.464 1103.45 231.744C1103.45 232.592 1103.24 233.37 1102.81 234.08C1102.39 234.789 1101.83 235.36 1101.12 235.792C1100.43 236.208 1099.65 236.415 1098.78 236.415ZM1130.64 236.83C1126.9 236.83 1123.68 235.948 1120.98 234.184C1118.28 232.419 1116.21 229.988 1114.75 226.892C1113.3 223.795 1112.58 220.257 1112.58 216.278C1112.58 212.23 1113.32 208.658 1114.81 205.561C1116.31 202.447 1118.41 200.017 1121.09 198.27C1123.79 196.505 1126.93 195.623 1130.53 195.623C1133.33 195.623 1135.86 196.142 1138.11 197.18C1140.36 198.218 1142.2 199.671 1143.64 201.539C1145.07 203.408 1145.96 205.587 1146.31 208.078H1140.19C1139.72 206.262 1138.68 204.653 1137.07 203.252C1135.48 201.833 1133.33 201.124 1130.64 201.124C1128.25 201.124 1126.16 201.747 1124.36 202.992C1122.57 204.221 1121.18 205.959 1120.18 208.208C1119.19 210.44 1118.7 213.061 1118.7 216.071C1118.7 219.15 1119.18 221.832 1120.15 224.115C1121.14 226.399 1122.52 228.172 1124.3 229.435C1126.1 230.698 1128.21 231.329 1130.64 231.329C1132.23 231.329 1133.67 231.052 1134.97 230.499C1136.27 229.945 1137.37 229.149 1138.27 228.111C1139.16 227.073 1139.8 225.828 1140.19 224.375H1146.31C1145.96 226.727 1145.11 228.847 1143.74 230.732C1142.39 232.601 1140.6 234.088 1138.37 235.196C1136.15 236.285 1133.58 236.83 1130.64 236.83ZM1171.45 236.83C1167.86 236.83 1164.7 235.974 1161.98 234.261C1159.28 232.549 1157.17 230.153 1155.65 227.073C1154.15 223.994 1153.39 220.396 1153.39 216.278C1153.39 212.127 1154.15 208.502 1155.65 205.406C1157.17 202.309 1159.28 199.904 1161.98 198.192C1164.7 196.479 1167.86 195.623 1171.45 195.623C1175.05 195.623 1178.2 196.479 1180.9 198.192C1183.62 199.904 1185.73 202.309 1187.23 205.406C1188.75 208.502 1189.52 212.127 1189.52 216.278C1189.52 220.396 1188.75 223.994 1187.23 227.073C1185.73 230.153 1183.62 232.549 1180.9 234.261C1178.2 235.974 1175.05 236.83 1171.45 236.83ZM1171.45 231.329C1174.19 231.329 1176.44 230.628 1178.2 229.227C1179.97 227.826 1181.27 225.984 1182.12 223.7C1182.97 221.416 1183.39 218.943 1183.39 216.278C1183.39 213.614 1182.97 211.132 1182.12 208.831C1181.27 206.53 1179.97 204.67 1178.2 203.252C1176.44 201.833 1174.19 201.124 1171.45 201.124C1168.72 201.124 1166.47 201.833 1164.71 203.252C1162.94 204.67 1161.64 206.53 1160.79 208.831C1159.94 211.132 1159.52 213.614 1159.52 216.278C1159.52 218.943 1159.94 221.416 1160.79 223.7C1161.64 225.984 1162.94 227.826 1164.71 229.227C1166.47 230.628 1168.72 231.329 1171.45 231.329ZM1198.86 236V196.142H1204.78V202.37H1205.3C1206.13 200.242 1207.47 198.59 1209.32 197.413C1211.17 196.22 1213.39 195.623 1215.99 195.623C1218.62 195.623 1220.81 196.22 1222.56 197.413C1224.32 198.59 1225.69 200.242 1226.68 202.37H1227.1C1228.12 200.311 1229.65 198.676 1231.69 197.465C1233.73 196.237 1236.18 195.623 1239.03 195.623C1242.6 195.623 1245.51 196.739 1247.78 198.97C1250.04 201.185 1251.18 204.636 1251.18 209.324V236H1245.05V209.324C1245.05 206.383 1244.25 204.281 1242.64 203.018C1241.03 201.755 1239.14 201.124 1236.96 201.124C1234.15 201.124 1231.98 201.972 1230.44 203.667C1228.9 205.345 1228.13 207.473 1228.13 210.051V236H1221.91V208.701C1221.91 206.435 1221.17 204.61 1219.7 203.226C1218.23 201.825 1216.34 201.124 1214.02 201.124C1212.43 201.124 1210.94 201.548 1209.55 202.396C1208.19 203.243 1207.08 204.42 1206.23 205.925C1205.4 207.412 1204.99 209.134 1204.99 211.089V236H1198.86Z" fill="white"/>
<path d="M563 250.532H635.221V255.514H563V250.532ZM652.045 250.532H1004.58V255.514H652.045V250.532ZM1021.41 250.532H1044.81V255.514H1021.41V250.532ZM1060.9 250.532H1256.78V255.514H1060.9V250.532Z" fill="white"/>
<line x1="500.5" y1="1.09278e-07" x2="500.5" y2="313" stroke="white" stroke-width="5"/>
</g>
<defs>
<clipPath id="clip0_735_2">
<rect width="1257" height="313" fill="white"/>
</clipPath>
</defs>
</svg>
