<svg width="154" height="154" viewBox="0 0 154 154" fill="none" xmlns="http://www.w3.org/2000/svg">
<rect width="154" height="154" rx="77" fill="#E5E5E5"/>
<path fill-rule="evenodd" clip-rule="evenodd" d="M78.7027 118.82L78.6582 118.827L78.3949 118.957L78.3207 118.972L78.2688 118.957L78.0055 118.824C77.966 118.814 77.9363 118.821 77.9165 118.846L77.9017 118.883L77.8386 120.47L77.8572 120.544L77.8943 120.593L78.2799 120.867L78.3356 120.882L78.3801 120.867L78.7657 120.593L78.8102 120.533L78.8251 120.47L78.762 118.887C78.7521 118.847 78.7324 118.825 78.7027 118.82ZM79.6817 118.401L79.6298 118.408L78.9474 118.753L78.9104 118.79L78.8992 118.831L78.966 120.426L78.9845 120.47L79.0142 120.5L79.7596 120.841C79.8065 120.853 79.8424 120.843 79.8671 120.811L79.8819 120.759L79.7559 118.482C79.7435 118.436 79.7188 118.408 79.6817 118.401ZM77.0302 118.408C77.0139 118.398 76.9944 118.395 76.9757 118.399C76.957 118.403 76.9407 118.415 76.9301 118.431L76.9079 118.482L76.7818 120.759C76.7842 120.804 76.8053 120.834 76.8448 120.848L76.9004 120.841L77.6458 120.496L77.6829 120.466L77.694 120.426L77.7608 118.831L77.7496 118.787L77.7126 118.749L77.0302 118.408Z" fill="black" fill-opacity="0.85"/>
<path fill-rule="evenodd" clip-rule="evenodd" d="M72.7916 40.4166C67.8741 40.4166 63.1579 42.3701 59.6807 45.8474C56.2035 49.3246 54.25 54.0407 54.25 58.9583C54.25 63.8758 56.2035 68.592 59.6807 72.0692C63.1579 75.5465 67.8741 77.5 72.7916 77.5C77.7092 77.5 82.4253 75.5465 85.9026 72.0692C89.3798 68.592 91.3333 63.8758 91.3333 58.9583C91.3333 54.0407 89.3798 49.3246 85.9026 45.8474C82.4253 42.3701 77.7092 40.4166 72.7916 40.4166ZM72.7916 81.2083C63.9102 81.2083 55.826 83.7819 49.8815 87.4086C46.9149 89.2183 44.3784 91.3543 42.5465 93.6757C40.7442 95.9526 39.4166 98.6857 39.4166 101.604C39.4166 104.738 40.9408 107.207 43.1361 108.969C45.2128 110.638 47.9532 111.743 50.8643 112.514C56.716 114.06 64.5258 114.583 72.7916 114.583C73.647 114.583 74.4938 114.577 75.3318 114.565C75.9529 114.556 76.5619 114.392 77.1029 114.087C77.6438 113.781 78.0995 113.345 78.428 112.818C78.7566 112.291 78.9474 111.69 78.9831 111.07C79.0188 110.45 78.8981 109.831 78.6322 109.269C77.2261 106.293 76.4978 103.042 76.5 99.75C76.5 95.1071 77.9202 90.8055 80.3455 87.2417C80.706 86.7122 80.9231 86.0982 80.9758 85.4597C81.0284 84.8213 80.9147 84.1801 80.6459 83.5986C80.377 83.0171 79.962 82.5152 79.4415 82.1418C78.9209 81.7684 78.3125 81.5362 77.6755 81.4679C76.0784 81.2948 74.4505 81.2083 72.7916 81.2083ZM93.5064 89.2628C92.807 88.5873 91.8702 88.2135 90.8979 88.222C89.9256 88.2304 88.9955 88.6204 88.308 89.308C87.6204 89.9955 87.2304 90.9256 87.222 91.8979C87.2135 92.8702 87.5873 93.807 88.2628 94.5064L93.5064 99.75L88.2628 104.994C87.9086 105.336 87.6261 105.745 87.4317 106.197C87.2374 106.65 87.1351 107.136 87.1308 107.629C87.1265 108.121 87.2204 108.609 87.4068 109.065C87.5933 109.521 87.8686 109.935 88.2168 110.283C88.565 110.631 88.9791 110.907 89.4348 111.093C89.8905 111.28 90.3788 111.373 90.8712 111.369C91.3636 111.365 91.8502 111.263 92.3027 111.068C92.7551 110.874 93.1643 110.591 93.5064 110.237L98.75 104.994L103.994 110.237C104.336 110.591 104.745 110.874 105.197 111.068C105.65 111.263 106.136 111.365 106.629 111.369C107.121 111.373 107.609 111.28 108.065 111.093C108.521 110.907 108.935 110.631 109.283 110.283C109.631 109.935 109.907 109.521 110.093 109.065C110.28 108.609 110.373 108.121 110.369 107.629C110.365 107.136 110.263 106.65 110.068 106.197C109.874 105.745 109.591 105.336 109.237 104.994L103.994 99.75L109.237 94.5064C109.913 93.807 110.286 92.8702 110.278 91.8979C110.27 90.9256 109.88 89.9955 109.192 89.308C108.504 88.6204 107.574 88.2304 106.602 88.222C105.63 88.2135 104.693 88.5873 103.994 89.2628L98.75 94.5064L93.5064 89.2628Z" fill="black" fill-opacity="0.85"/>
</svg>
