<svg width="411" height="215" viewBox="0 0 411 215" fill="none" xmlns="http://www.w3.org/2000/svg">
<path d="M19.2403 76.326C19.2403 77.298 18.6604 77.884 16.9129 78.077C15.3588 78.271 13.418 78.077 11.4772 77.496C9.54034 77.105 7.40244 76.326 5.46554 75.547C3.52474 74.772 2.36104 73.799 1.77734 73.02C0.617442 65.437 0.227042 58.629 1.00404 52.599C1.77734 46.574 3.33144 41.323 5.46554 36.8512C7.59964 32.3795 10.3135 28.2952 13.6113 24.9898C16.7529 21.8088 20.1972 18.9432 23.8951 16.4338C27.5833 14.0972 31.2676 11.9582 34.952 10.4043C38.4352 8.91313 41.9973 7.61434 45.6224 6.51384C51.5266 4.49064 57.6517 3.18444 63.8664 2.62334C70.2686 1.84834 76.6708 1.46084 82.8797 1.46084C88.3115 1.46084 94.1299 1.65464 99.9519 1.84834C105.775 2.23584 111.203 2.62334 116.445 3.01084C121.1 3.40224 125.758 3.59604 130.22 3.98734C134.681 4.37484 139.143 4.37484 143.218 4.37484C148.263 4.37484 152.921 3.98734 156.992 3.40614C161.067 2.82104 164.755 1.65464 167.663 0.0968391C168.243 -0.290661 168.826 0.484337 169.41 2.42964C169.797 4.18114 170.183 6.32014 170.377 8.84664C170.574 11.377 170.574 13.7097 170.574 15.8487C170.574 17.9877 170.187 19.3478 169.607 19.933C165.919 21.4868 161.844 22.6532 157.383 23.4321C152.918 24.0133 148.456 24.4047 143.608 24.4047C138.37 24.4047 132.744 24.211 127.309 23.6297C121.684 23.0446 116.058 22.4595 110.236 21.8782C104.027 21.297 97.8179 20.5142 91.4159 19.933C85.2071 19.3517 78.9982 18.9603 72.9864 18.9603C69.2982 18.9603 65.4205 19.1541 61.7323 19.5416C58.0441 19.9291 54.3597 20.3205 50.8686 21.0993C46.0167 22.0681 41.5514 23.8235 37.0938 26.35C32.8257 28.6827 29.1374 32.1818 26.0369 36.4637C22.9285 40.7417 20.7945 46.186 19.4375 52.797C18.4671 59.214 18.2699 66.991 19.2403 76.326ZM74.7262 19.7392C75.1128 19.3517 75.8898 19.158 77.0535 19.3517C78.2211 19.5455 79.5781 20.1267 81.1284 20.9017C82.6825 21.6806 84.2328 22.6532 85.9803 23.8235C87.6038 25.0243 89.0989 26.3904 90.4419 27.9C91.7989 29.4577 92.9659 31.0116 93.7399 32.5693C94.5169 34.1232 94.7099 35.8747 94.5169 37.2348C90.6209 43.9574 86.9963 50.835 83.6529 57.85C80.1036 65.294 76.8662 72.884 73.9491 80.6C71.031 88.437 68.3148 96.349 65.8033 104.327C63.2787 112.297 61.3418 120.075 59.5944 127.464C58.0402 135.051 56.6832 142.05 55.9061 148.854C55.1329 155.663 54.7463 161.692 55.1329 166.943C55.1329 167.718 54.3558 167.524 52.8055 166.749C51.2514 165.776 49.5039 164.61 47.7603 162.858C45.8753 161.324 44.1229 159.632 42.5218 157.802C40.9676 156.054 39.9972 154.69 39.8039 153.915C39.224 148.273 39.224 141.662 39.9972 134.466C40.7743 127.077 41.938 119.493 43.6855 111.325C45.5025 103.014 47.6382 94.776 50.0877 86.629C52.6084 78.267 55.1329 69.905 58.0402 61.934C60.6739 54.207 63.5217 46.555 66.5803 38.9863C69.0144 32.4534 71.7323 26.0342 74.7262 19.7392ZM152.342 126.116C150.791 129.421 148.85 132.726 146.716 136.036C144.582 139.337 142.255 142.449 139.344 145.173C136.626 147.897 133.521 150.23 130.224 151.784C126.951 153.535 123.257 154.343 119.553 154.116C117.226 153.923 115.285 153.535 113.344 152.563C111.589 151.615 110.013 150.365 108.69 148.87C107.333 147.312 106.362 145.56 105.392 143.619C104.422 141.674 104.031 139.535 103.644 137.396C103.258 134.284 103.258 131.366 103.644 128.642C104.031 125.922 104.615 123.198 105.392 120.865C106.165 118.532 107.136 116.002 108.299 113.669C109.467 111.336 110.63 108.81 111.987 106.473L114.122 102.393V102.587L116.642 97.724C117.029 96.755 117.81 95.778 118.78 94.806C119.747 93.837 121.494 93.058 123.821 92.473C122.662 92.667 121.494 93.054 120.91 93.054C120.33 93.054 119.557 93.446 118.973 93.639C117.81 93.833 116.642 94.221 115.479 94.418C114.319 94.612 112.958 94.806 111.21 94.612H110.244C108.69 97.917 107.136 101.029 105.972 104.144C104.875 107.087 103.711 110.005 102.481 112.894L102.287 112.7C102.094 113.282 101.514 113.475 100.54 113.088C99.5729 112.894 98.4059 112.309 97.2419 111.53C96.2559 110.851 95.3449 110.069 94.5239 109.197C93.7509 108.422 93.5579 107.446 93.7509 106.865V107.058L100.54 90.528C99.1829 88.974 98.4059 87.029 98.2129 84.696C97.8259 81.778 97.8259 79.058 98.7929 76.915C99.7669 74.776 100.733 72.056 101.897 68.944C102.284 67.778 102.867 66.417 103.258 64.86C103.644 63.306 104.224 61.554 104.615 59.415L109.27 61.748C110.87 62.536 112.37 63.516 113.735 64.666C115.092 65.832 116.256 66.999 117.226 68.363C118.192 69.719 118.776 71.47 118.973 73.222C119.167 73.997 119.167 74.973 119.167 75.946C119.167 76.915 118.973 78.085 118.587 79.445L114.705 85.862C114.319 86.443 114.705 86.443 115.479 86.056C116.256 85.668 117.419 84.893 118.973 83.917C120.524 82.948 122.078 81.584 123.821 80.224C125.569 78.86 127.316 77.306 129.06 75.946C130.808 74.582 132.164 73.222 133.521 71.862C134.882 70.695 135.659 69.723 136.046 68.944C136.626 68.944 137.403 69.138 138.373 69.719C139.344 70.304 140.507 70.889 141.478 71.668C142.642 72.443 143.612 73.024 144.389 73.609C145.162 74.195 145.746 74.582 145.939 74.78C147.103 76.334 147.687 78.279 147.687 80.612C147.687 82.751 147.3 85.277 146.33 88.001C145.276 90.926 144.045 93.784 142.642 96.557C141.091 99.475 139.344 102.587 137.79 105.698C136.823 107.446 135.659 109.197 134.882 110.751L131.971 116.002C131.198 117.366 130.421 118.92 129.644 120.478L127.316 125.728C126.539 127.476 125.956 129.227 125.569 130.979C125.182 132.726 124.989 134.09 125.182 135.257C125.182 135.838 125.762 136.032 126.926 136.032C127.896 136.226 129.253 135.838 130.614 134.869C131.971 134.09 133.521 132.924 135.076 131.366C136.626 129.809 138.18 128.255 139.537 126.116C141.091 124.17 142.255 122.031 143.225 119.505C144.578 116.393 145.939 113.475 147.103 110.558C148.267 107.644 149.237 105.113 150.014 102.974C150.401 102.587 150.985 102.393 152.148 102.78C153.312 103.168 154.282 103.555 155.446 104.334C156.61 105.113 157.387 105.892 158.164 107.058C158.937 108.031 159.13 108.81 158.937 109.585V109.391L156.223 116.587L152.342 126.116Z" fill="white"/>
<path d="M163.213 69.5176C164.38 68.9366 165.931 68.9366 168.258 69.9046C170.392 70.6836 172.72 72.0476 174.854 73.9896C176.992 75.7406 178.735 77.8796 180.289 80.0186C181.84 82.1576 182.423 84.4906 182.033 86.6296C181.84 87.4086 181.646 88.7686 181.26 90.5196C180.873 92.2716 180.289 94.2166 179.706 96.3556V96.1616C178.932 99.2696 177.958 102.773 176.988 106.664C176.055 110.466 175.214 114.29 174.467 118.134C173.742 121.674 173.159 125.242 172.72 128.829C172.333 132.134 172.333 134.858 172.526 136.803C172.526 137.578 172.526 137.966 172.333 137.966H173.69C176.215 136.997 178.349 135.443 180.289 133.3C182.226 131.161 183.974 128.829 185.528 126.108C187.078 123.384 188.435 120.466 189.796 117.355C191.073 114.394 192.301 111.412 193.48 108.411H193.287C193.48 107.83 193.674 107.245 194.06 106.853C194.254 106.272 194.644 105.691 194.837 105.3C195.808 100.049 196.585 94.4106 197.555 88.5746C198.522 82.7426 199.303 76.5196 199.883 70.2966C201.046 69.7146 202.987 69.7146 205.121 70.4896C207.448 71.2646 209.776 72.6286 211.91 74.1866C214.026 75.8826 215.918 77.8426 217.539 80.0186C219.089 82.1576 219.673 84.4906 219.48 86.6296L207.255 142.833C206.091 148.083 204.928 153.14 203.764 158.003C202.6 162.669 201.24 167.338 200.076 171.419C203.616 173.374 207.048 175.517 210.36 177.84C213.657 180.172 217.152 182.311 220.643 184.838L220.45 184.644C220.837 184.838 221.223 185.225 221.61 185.613C222 186.004 222.387 186.396 222.971 186.589C224.718 187.752 225.298 189.31 224.521 190.867C223.748 192.421 222.584 193.979 220.837 195.339C219.089 196.699 217.152 197.672 215.018 198.451C212.88 199.226 211.33 199.226 210.36 198.644L203.374 193.588L194.064 187.171C189.989 195.924 184.554 202.729 177.958 207.592C171.363 212.451 162.826 214.788 152.156 214.788C148.665 214.788 145.367 214.4 141.872 213.617C138.381 212.842 135.277 211.478 132.366 209.925C129.454 208.173 126.934 206.034 124.993 203.314C123.052 200.59 121.695 197.284 120.918 193.2C120.145 188.143 120.531 183.474 122.082 179.2C123.636 174.922 125.77 171.225 129.068 167.923C132.172 164.808 136.054 162.281 140.709 160.53C145.413 158.715 150.413 157.792 155.454 157.81C158.365 157.81 161.079 158.003 163.41 158.197C165.737 158.391 168.065 158.778 170.199 159.166C172.333 159.557 174.274 160.142 176.215 160.724C178.155 161.305 180.092 162.088 182.226 162.863C183.78 157.225 185.331 151.005 186.885 144.584L185.137 146.723C184.557 147.498 183.587 148.281 182.617 149.254C181.646 150.222 180.289 151.001 179.122 151.78C177.705 152.58 176.21 153.232 174.66 153.725C173.11 154.307 171.363 154.5 169.422 154.5C165.154 154.307 162.049 152.559 159.525 149.254C157.008 145.944 155.454 141.864 154.677 137.195C154.43 136.044 154.301 134.872 154.29 133.696C154.097 132.529 154.097 131.363 154.097 130.193C154.29 125.915 154.87 120.664 155.647 114.638C156.424 108.609 157.588 102.386 158.558 96.5536C159.331 91.6906 160.112 87.0206 160.692 82.7466C161.465 78.2706 161.856 74.5786 162.049 71.6646L163.213 69.5176ZM147.888 203.504C151.186 203.504 154.097 202.922 156.811 201.752C159.529 200.586 162.049 198.834 164.38 196.502C166.816 194.03 168.964 191.29 170.783 188.333C172.72 185.225 174.467 181.722 176.215 178.026C170.586 175.89 164.574 174.724 157.974 174.526C154.87 174.526 151.572 174.914 148.081 175.693C144.59 176.472 141.486 177.444 138.768 179.002C136.259 180.406 134.077 182.327 132.366 184.64C130.815 186.973 130.425 189.697 131.009 192.809C131.395 194.948 131.975 196.695 133.143 198.059C134.306 199.416 135.663 200.586 137.411 201.365C138.961 202.14 140.709 202.725 142.456 203.112C144.59 203.306 146.334 203.504 147.888 203.504Z" fill="white"/>
<path d="M232.276 70.0908C233.247 69.5098 234.604 69.5098 236.158 69.8968C237.905 70.2848 239.649 71.0598 241.396 72.0358C243.144 73.0048 245.081 74.3688 246.635 75.9228C248.379 77.4808 249.739 79.0348 250.71 80.7858C254.394 77.0888 258.469 74.3688 262.931 72.0358C267.396 69.8928 271.857 68.9248 276.125 69.5058C279.23 69.8928 281.944 70.8658 284.275 72.2298C286.602 73.5858 288.543 75.1438 290.094 77.2828C291.644 79.2278 292.811 81.5648 293.782 83.8978C294.748 86.2298 295.332 88.9548 295.719 91.4808C296.105 93.6198 296.299 95.9528 296.299 98.0918C296.299 100.231 296.105 102.37 296.105 104.315C295.283 110.236 293.786 116.042 291.644 121.621C289.537 127.121 286.663 132.294 283.108 136.985C279.616 141.651 275.739 145.347 271.277 148.261C266.812 151.179 262.153 152.931 257.305 153.512C252.844 153.318 248.962 152.35 245.862 150.598C242.753 148.847 240.233 146.32 238.292 143.596C238.099 143.983 237.905 144.569 237.712 145.154C237.519 145.735 237.326 146.122 237.128 146.708C235.913 150.777 234.75 154.862 233.637 158.96C232.462 163.254 231.491 167.602 230.726 171.988C229.953 176.266 229.172 180.738 228.979 185.21C228.592 189.685 228.592 193.963 228.785 198.241C228.979 199.404 228.205 199.989 226.458 199.989C224.711 199.989 222.963 199.601 221.026 198.826C218.971 198.019 217.017 196.973 215.204 195.711C213.46 194.548 212.293 193.184 211.906 191.824C211.326 187.155 211.133 182.292 211.519 177.626C211.713 172.961 212.293 168.295 213.07 163.626C213.843 158.96 214.817 154.291 215.981 149.625C217.141 144.956 218.502 140.291 219.665 135.625C220.829 131.541 221.799 127.65 222.77 123.954C223.74 120.261 224.517 116.37 225.488 112.484V112.871C225.874 109.953 226.454 107.233 227.038 104.121C227.618 101.203 228.202 98.2858 228.592 95.3678C229.365 90.8958 230.142 86.4238 230.919 82.1458C231.499 77.8678 231.886 73.7838 232.276 70.0908ZM243.527 122.985L243.333 124.147L243.724 127.263C244.11 129.402 244.888 131.149 245.858 132.901C246.828 134.652 248.576 135.427 250.71 135.625C252.844 135.819 254.978 135.238 257.305 133.68C259.633 132.122 261.767 130.177 263.901 127.457C266.035 124.926 267.976 121.815 269.723 118.509C271.467 115.204 273.021 111.705 274.378 108.202C275.739 104.703 276.512 101.397 277.096 98.0918C277.676 94.7858 277.676 91.8688 277.289 89.3418C276.902 86.4238 275.348 84.8698 273.021 84.8698C270.887 84.6768 268.753 85.0638 266.619 85.8388C264.485 86.6178 262.157 87.7838 260.023 89.1478C257.731 90.6148 255.643 92.3808 253.814 94.3988C251.874 96.5378 250.126 98.4788 248.576 101.01C247.799 104.509 247.022 108.206 246.051 112.092C245.085 115.983 244.308 119.676 243.531 122.981L243.527 122.985ZM252.075 200.384C250.331 200.384 248.777 199.803 247.806 198.633C247.235 198.08 246.784 197.415 246.484 196.678C246.184 195.941 246.04 195.15 246.063 194.355C246.063 192.216 246.836 190.468 248.584 188.716C249.316 187.968 250.192 187.376 251.159 186.975C252.125 186.574 253.163 186.373 254.209 186.384C255.956 186.384 257.506 186.965 258.481 188.131C259.64 189.298 260.224 190.662 260.224 192.409C260.224 194.548 259.451 196.3 257.704 198.051C256.97 198.8 256.094 199.393 255.127 199.793C254.159 200.194 253.121 200.395 252.075 200.384ZM306.211 181.342C306.791 181.149 307.371 181.342 307.758 181.536C308.148 181.73 308.341 182.315 308.148 182.9C307.955 183.288 307.955 183.481 307.761 183.869C307.568 184.256 307.375 184.648 306.984 185.233C306.404 186.202 305.821 187.178 305.044 188.344C304.27 189.507 303.493 190.483 302.716 191.258C301.166 193.01 299.418 194.761 297.284 196.122C295.271 197.392 293.124 198.436 290.882 199.233C288.555 199.814 286.224 200.202 283.896 200.008C281.466 199.818 279.095 199.159 276.914 198.067C274.583 196.9 273.033 195.149 271.869 193.01C270.705 190.871 270.121 188.538 269.928 186.008C269.735 183.481 270.121 180.955 270.701 178.231C271.478 175.507 272.449 172.98 274.003 170.841C275.553 168.508 277.301 166.563 279.628 165.009C281.762 163.451 284.48 162.479 287.387 162.091C289.327 161.864 291.289 161.93 293.21 162.285C294.957 162.673 296.507 163.451 297.864 164.812C299.028 165.982 299.805 167.148 300.389 168.896C300.969 170.454 301.162 172.007 300.969 173.565C300.969 175.119 300.389 176.677 299.612 178.037C298.839 179.397 297.864 180.563 296.314 181.149C294.76 181.924 293.21 182.117 291.659 181.924C290.298 181.536 289.135 180.955 288.164 180.374C287.198 179.591 286.614 179.01 286.417 178.231C286.224 177.456 286.61 177.064 287.387 177.064C288.748 177.258 290.105 176.677 291.269 175.704C292.432 174.732 293.21 173.565 293.793 172.399C294.18 171.229 294.373 170.26 294.18 169.675C293.987 168.9 293.793 168.508 293.21 168.121C292.63 167.733 292.046 167.733 291.269 167.927C290.496 168.121 289.525 168.315 288.748 168.896C287.387 169.675 286.224 170.841 285.06 172.593C283.9 174.146 282.926 175.898 281.955 177.646C280.989 179.397 280.598 181.342 280.405 183.288C280.212 185.233 280.405 186.787 280.985 188.344C281.565 189.701 282.346 190.871 283.51 191.844C284.582 192.753 285.839 193.416 287.194 193.789C288.555 194.176 290.105 194.176 291.853 193.789C293.596 193.401 295.344 192.622 297.091 191.456C298.444 190.483 299.805 189.317 300.969 187.953C302.132 186.593 303.296 185.233 304.267 183.675C304.653 183.094 304.85 182.706 305.237 182.513C305.624 182.315 305.821 181.342 306.211 181.342Z" fill="white"/>
<path d="M342.282 183.303C342.475 182.916 342.862 182.722 343.252 182.722C343.639 182.722 344.025 182.916 344.218 183.303C344.416 183.691 344.609 184.276 344.416 185.055C344.416 185.83 344.029 186.806 343.449 187.973C342.668 189.333 341.895 190.693 340.731 191.859C339.761 193.026 338.597 193.998 337.236 194.777C335.879 195.552 334.329 196.137 332.582 196.722C330.834 197.11 328.7 197.304 326.373 197.11C323.462 199.055 320.554 200.028 317.643 200.221C314.539 200.415 312.014 199.64 309.493 198.276C307.064 196.841 305.16 194.66 304.062 192.057C302.705 189.333 302.314 185.834 302.898 181.749C303.285 179.417 303.864 177.08 304.642 174.747C305.419 172.414 306.582 170.469 308.136 168.722C308.716 167.943 309.493 167.358 310.271 166.776C311.044 166.195 312.014 165.61 312.985 165.025C313.955 164.637 314.925 164.25 315.896 164.056C316.866 163.858 317.836 164.056 318.807 164.25C319 164.056 319.193 164.056 319.387 164.056C319.58 164.056 319.773 163.858 319.967 163.858C322.882 162.692 325.402 162.301 327.536 162.886C329.67 163.273 331.418 164.246 332.582 165.804C333.939 167.358 334.716 169.109 335.296 171.442C335.879 173.775 335.879 176.107 335.682 178.638C335.489 180.97 334.909 183.109 333.942 185.442C333.162 187.775 331.998 189.72 330.641 191.665C331.998 191.859 333.359 191.859 334.522 191.472C335.682 191.084 336.656 190.305 337.627 189.526C338.593 188.751 339.37 187.779 339.954 186.806C340.534 185.834 341.698 184.276 342.282 183.303ZM312.598 187.775C313.178 189.72 313.955 191.278 315.316 192.057C316.669 193.026 318.223 193.219 319.777 192.444C317.836 190.499 316.479 187.973 315.509 185.248C314.539 182.331 313.955 179.61 313.955 176.886C313.182 178.444 312.598 180.192 312.211 182.331C312.018 184.276 312.211 186.217 312.598 187.775ZM328.893 177.859C329.28 175.332 329.087 173.193 328.7 171.636C328.12 170.082 327.343 169.109 326.566 168.722C325.6 168.334 324.822 168.722 323.852 169.69C322.882 170.663 322.298 172.608 322.105 175.332C321.911 177.471 322.105 179.61 322.684 181.749C323.268 183.888 324.239 185.834 325.402 187.581C326.373 186.221 326.953 184.667 327.73 182.916C328.116 181.164 328.7 179.61 328.893 177.859Z" fill="white"/>
<path d="M408.654 184.062C408.852 183.675 409.045 183.481 409.431 183.675C409.818 183.675 410.015 184.062 410.208 184.45C410.402 184.841 410.402 185.426 410.402 186.399C410.402 187.174 410.015 188.344 409.431 189.511C408.654 190.871 407.881 192.425 406.717 193.789C405.634 195.101 404.396 196.276 403.029 197.288C401.672 198.26 400.118 199.039 398.568 199.62C397.014 200.202 395.27 200.399 393.716 200.202C391.002 199.814 388.868 198.845 387.7 197.288C386.347 195.536 385.566 193.397 385.373 190.871C385.179 189.191 385.179 187.494 385.373 185.814C385.566 184.066 385.759 182.315 386.15 180.563C386.537 179.401 386.73 178.037 387.116 176.479L388.284 171.813C388.284 170.26 388.091 169.481 387.507 169.674C386.927 169.674 385.957 170.256 384.986 171.426C383.823 172.588 382.659 174.146 381.298 176.091C379.815 178.282 378.457 180.555 377.231 182.9C375.87 185.426 374.513 187.953 373.349 190.677C372.24 193.281 371.268 195.941 370.438 198.648C370.245 199.229 370.052 199.62 369.858 200.012C369.665 200.399 369.275 200.399 368.691 200.399C367.724 200.399 366.754 200.399 365.783 200.012C364.813 199.624 363.843 199.233 363.066 198.648C362.279 198.049 361.675 197.24 361.322 196.315C360.935 195.346 360.738 194.37 361.129 193.203C361.515 191.064 362.095 189.119 362.482 186.98C362.872 184.841 363.456 182.9 364.036 180.757C364.229 180.176 364.229 179.594 364.423 179.009C364.616 178.428 364.809 177.843 364.809 177.258C365.006 176.483 365.006 175.898 365.2 175.313C365.393 174.731 365.586 174.15 365.78 173.367C366.17 171.426 366.17 170.062 365.78 169.674C365.393 169.287 364.62 169.481 363.843 170.062C363.069 170.643 361.902 172.007 360.545 173.759C359.184 175.506 358.02 177.452 356.663 179.788C355.215 182.233 353.919 184.766 352.782 187.372C351.518 189.957 350.417 192.619 349.484 195.342C349.291 196.121 349.098 196.706 348.904 197.288L348.324 199.039C348.127 199.62 348.127 199.814 347.934 199.814C347.741 199.814 347.354 200.008 346.77 200.008C345.8 200.008 344.829 200.008 343.859 199.62C342.889 199.233 341.918 198.845 341.141 198.26C340.354 197.661 339.75 196.853 339.398 195.928C339.011 194.955 338.818 193.982 339.204 192.816C340.364 187.759 341.532 182.896 342.695 178.037C343.859 173.174 345.023 168.31 346.186 163.257C346.186 162.87 346.38 162.676 346.766 162.676C347.934 162.482 349.291 162.482 350.455 162.676C351.618 162.676 352.589 163.064 353.366 163.451C354.139 163.839 354.723 164.618 355.113 165.59C355.5 166.563 355.5 167.729 355.113 169.287L354.533 172.201C354.336 173.174 354.143 174.146 353.752 175.119C354.916 172.786 356.08 170.647 357.441 168.702C358.797 166.757 360.738 165.203 362.872 164.036C363.646 163.649 364.423 163.257 365.393 163.064C366.363 162.87 367.527 162.676 368.691 162.482H371.992C372.959 162.482 373.929 162.87 374.706 163.064C375.677 163.451 376.647 164.226 377.034 165.203C377.614 166.171 377.614 167.535 377.227 169.287C376.84 171.231 376.454 173.175 376.067 175.119C377.227 172.786 378.395 170.647 379.752 168.702C381.109 166.757 383.049 165.203 385.183 164.036C385.957 163.455 387.124 163.064 388.288 162.87C389.452 162.676 390.809 162.482 392.169 162.676C393.526 162.87 394.69 163.064 395.854 163.645C397.017 164.226 397.795 165.009 398.378 165.978C399.152 167.342 399.349 168.702 399.349 170.453C399.349 172.201 398.958 173.759 398.378 175.506C397.988 176.87 397.601 178.037 397.211 179.397C397.017 180.761 396.631 181.927 396.244 183.287C396.047 184.45 395.854 185.426 395.854 186.399C395.66 187.368 395.66 188.344 395.854 189.119C395.854 191.258 396.631 192.816 397.795 193.397C398.958 193.978 400.512 193.785 402.449 192.428C403.226 191.843 403.81 191.258 404.583 190.483L406.331 188.147C406.915 187.372 407.301 186.593 407.688 186.008C408.078 185.426 408.272 184.454 408.658 184.066L408.654 184.062Z" fill="white"/>
</svg>
