<svg width="100" height="100" viewBox="0 0 100 100" fill="none" xmlns="http://www.w3.org/2000/svg">
<g clip-path="url(#clip0_5023_2)">
<path d="M80 0H20C8.9543 0 0 8.9543 0 20V80C0 91.0457 8.9543 100 20 100H80C91.0457 100 100 91.0457 100 80V20C100 8.9543 91.0457 0 80 0Z" fill="white" fill-opacity="0.15"/>
<path d="M30 30H70M50 30V70" stroke="white" stroke-width="8" stroke-linecap="round" stroke-linejoin="round"/>
<path d="M50 85C69.33 85 85 69.33 85 50C85 30.67 69.33 15 50 15C30.67 15 15 30.67 15 50C15 69.33 30.67 85 50 85Z" stroke="white" stroke-opacity="0.3" stroke-width="5"/>
<path d="M50 75C63.8071 75 75 63.8071 75 50C75 36.1929 63.8071 25 50 25C36.1929 25 25 36.1929 25 50C25 63.8071 36.1929 75 50 75Z" stroke="white" stroke-opacity="0.2" stroke-width="3"/>
</g>
<defs>
<clipPath id="clip0_5023_2">
<rect width="100" height="100" fill="white"/>
</clipPath>
</defs>
</svg>
