<svg width="67" height="12" viewBox="0 0 67 12" fill="none" xmlns="http://www.w3.org/2000/svg">
<path d="M3.76705 2.45455V3.30682H0.375V2.45455H3.76705ZM1.36364 0.886364H2.36932V7.125C2.36932 7.40909 2.41051 7.62216 2.4929 7.7642C2.57813 7.90341 2.68608 7.99716 2.81676 8.04545C2.95028 8.09091 3.09091 8.11364 3.23864 8.11364C3.34943 8.11364 3.44034 8.10795 3.51136 8.09659C3.58239 8.08239 3.6392 8.07102 3.68182 8.0625L3.88636 8.96591C3.81818 8.99148 3.72301 9.01705 3.60085 9.04261C3.47869 9.07102 3.32386 9.08523 3.13636 9.08523C2.85227 9.08523 2.57386 9.02415 2.30114 8.90199C2.03125 8.77983 1.80682 8.59375 1.62784 8.34375C1.4517 8.09375 1.36364 7.77841 1.36364 7.39773V0.886364ZM6.76278 9L4.76847 2.45455H5.82528L7.24006 7.46591H7.30824L8.70597 2.45455H9.77983L11.1605 7.44886H11.2287L12.6435 2.45455H13.7003L11.706 9H10.7173L9.28551 3.97159H9.18324L7.75142 9H6.76278ZM15.0298 9V2.45455H16.0355V9H15.0298ZM15.5412 1.36364C15.3452 1.36364 15.1761 1.29688 15.0341 1.16335C14.8949 1.02983 14.8253 0.869318 14.8253 0.681818C14.8253 0.494318 14.8949 0.333807 15.0341 0.200284C15.1761 0.0667613 15.3452 0 15.5412 0C15.7372 0 15.9048 0.0667613 16.044 0.200284C16.1861 0.333807 16.2571 0.494318 16.2571 0.681818C16.2571 0.869318 16.1861 1.02983 16.044 1.16335C15.9048 1.29688 15.7372 1.36364 15.5412 1.36364ZM20.7241 2.45455V3.30682H17.332V2.45455H20.7241ZM18.3207 0.886364H19.3263V7.125C19.3263 7.40909 19.3675 7.62216 19.4499 7.7642C19.5352 7.90341 19.6431 7.99716 19.7738 8.04545C19.9073 8.09091 20.0479 8.11364 20.1957 8.11364C20.3065 8.11364 20.3974 8.10795 20.4684 8.09659C20.5394 8.08239 20.5962 8.07102 20.6388 8.0625L20.8434 8.96591C20.7752 8.99148 20.68 9.01705 20.5579 9.04261C20.4357 9.07102 20.2809 9.08523 20.0934 9.08523C19.8093 9.08523 19.5309 9.02415 19.2582 8.90199C18.9883 8.77983 18.7638 8.59375 18.5849 8.34375C18.4087 8.09375 18.3207 7.77841 18.3207 7.39773V0.886364ZM25.0835 2.45455V3.30682H21.6914V2.45455H25.0835ZM22.68 0.886364H23.6857V7.125C23.6857 7.40909 23.7269 7.62216 23.8093 7.7642C23.8945 7.90341 24.0025 7.99716 24.1332 8.04545C24.2667 8.09091 24.4073 8.11364 24.555 8.11364C24.6658 8.11364 24.7567 8.10795 24.8278 8.09659C24.8988 8.08239 24.9556 8.07102 24.9982 8.0625L25.2028 8.96591C25.1346 8.99148 25.0394 9.01705 24.9173 9.04261C24.7951 9.07102 24.6403 9.08523 24.4528 9.08523C24.1687 9.08523 23.8903 9.02415 23.6175 8.90199C23.3477 8.77983 23.1232 8.59375 22.9442 8.34375C22.7681 8.09375 22.68 7.77841 22.68 7.39773V0.886364ZM29.2702 9.13636C28.6396 9.13636 28.0955 8.99716 27.6381 8.71875C27.1836 8.4375 26.8327 8.04545 26.5856 7.54261C26.3413 7.03693 26.2191 6.44886 26.2191 5.77841C26.2191 5.10795 26.3413 4.51705 26.5856 4.00568C26.8327 3.49148 27.1765 3.09091 27.6168 2.80398C28.06 2.5142 28.5771 2.36932 29.168 2.36932C29.5089 2.36932 29.8455 2.42614 30.1779 2.53977C30.5103 2.65341 30.8129 2.83807 31.0856 3.09375C31.3583 3.34659 31.5756 3.68182 31.7376 4.09943C31.8995 4.51705 31.9805 5.03125 31.9805 5.64205V6.06818H26.935V5.19886H30.9577C30.9577 4.82955 30.8839 4.5 30.7362 4.21023C30.5913 3.92045 30.3839 3.69176 30.114 3.52415C29.8469 3.35653 29.5316 3.27273 29.168 3.27273C28.7674 3.27273 28.4208 3.37216 28.1282 3.57102C27.8384 3.76705 27.6154 4.02273 27.4592 4.33807C27.3029 4.65341 27.2248 4.99148 27.2248 5.35227V5.93182C27.2248 6.42614 27.31 6.84517 27.4805 7.18892C27.6538 7.52983 27.8938 7.78977 28.2006 7.96875C28.5075 8.14489 28.864 8.23295 29.2702 8.23295C29.5344 8.23295 29.7731 8.19602 29.9862 8.12216C30.2021 8.04545 30.3881 7.93182 30.5444 7.78125C30.7006 7.62784 30.8214 7.4375 30.9066 7.21023L31.8782 7.48295C31.7759 7.8125 31.604 8.10227 31.3626 8.35227C31.1211 8.59943 30.8228 8.79261 30.4677 8.93182C30.1126 9.06818 29.7134 9.13636 29.2702 9.13636ZM33.5103 9V2.45455H34.4819V3.44318H34.5501C34.6694 3.11932 34.8853 2.85653 35.1978 2.65483C35.5103 2.45312 35.8626 2.35227 36.2546 2.35227C36.3285 2.35227 36.4208 2.35369 36.5316 2.35653C36.6424 2.35937 36.7262 2.36364 36.783 2.36932V3.39205C36.7489 3.38352 36.6708 3.37074 36.5487 3.35369C36.4293 3.33381 36.3029 3.32386 36.1694 3.32386C35.8512 3.32386 35.5671 3.39062 35.3171 3.52415C35.07 3.65483 34.8739 3.83665 34.729 4.0696C34.587 4.29972 34.516 4.5625 34.516 4.85795V9H33.5103ZM39.9013 9.15341C39.4865 9.15341 39.1101 9.07528 38.772 8.91903C38.4339 8.75994 38.1655 8.53125 37.9666 8.23295C37.7678 7.93182 37.6683 7.56818 37.6683 7.14205C37.6683 6.76705 37.7422 6.46307 37.8899 6.23011C38.0376 5.99432 38.2351 5.80966 38.4822 5.67614C38.7294 5.54261 39.0021 5.44318 39.3004 5.37784C39.6016 5.30966 39.9041 5.25568 40.2081 5.21591C40.6058 5.16477 40.9283 5.12642 41.1754 5.10085C41.4254 5.07244 41.6072 5.02557 41.7209 4.96023C41.8374 4.89489 41.8956 4.78125 41.8956 4.61932V4.58523C41.8956 4.16477 41.7805 3.83807 41.5504 3.60511C41.3232 3.37216 40.978 3.25568 40.5149 3.25568C40.0348 3.25568 39.6584 3.3608 39.3857 3.57102C39.1129 3.78125 38.9212 4.00568 38.8104 4.24432L37.8558 3.90341C38.0263 3.50568 38.2536 3.19602 38.5376 2.97443C38.8246 2.75 39.1371 2.59375 39.4751 2.50568C39.8161 2.41477 40.1513 2.36932 40.4808 2.36932C40.6911 2.36932 40.9325 2.39489 41.2053 2.44602C41.4808 2.49432 41.7464 2.59517 42.0021 2.74858C42.2607 2.90199 42.4751 3.13352 42.6456 3.44318C42.8161 3.75284 42.9013 4.16761 42.9013 4.6875V9H41.8956V8.11364H41.8445C41.7763 8.25568 41.6626 8.40767 41.5036 8.5696C41.3445 8.73153 41.1328 8.86932 40.8686 8.98295C40.6044 9.09659 40.282 9.15341 39.9013 9.15341ZM40.0547 8.25C40.4524 8.25 40.7876 8.17188 41.0604 8.01562C41.3359 7.85938 41.5433 7.65767 41.6825 7.41051C41.8246 7.16335 41.8956 6.90341 41.8956 6.63068V5.71023C41.853 5.76136 41.7592 5.80824 41.6143 5.85085C41.4723 5.89062 41.3075 5.92614 41.12 5.95739C40.9354 5.9858 40.755 6.01136 40.5788 6.03409C40.4055 6.05398 40.2649 6.07102 40.157 6.08523C39.8956 6.11932 39.6513 6.17472 39.424 6.25142C39.1996 6.32528 39.0178 6.4375 38.8786 6.58807C38.7422 6.7358 38.674 6.9375 38.674 7.19318C38.674 7.54261 38.8033 7.80682 39.0618 7.9858C39.3232 8.16193 39.6541 8.25 40.0547 8.25ZM44.7369 11.4545V2.45455H45.7085V3.49432H45.8278C45.9016 3.38068 46.0039 3.2358 46.1346 3.05966C46.2681 2.88068 46.4585 2.72159 46.7056 2.58239C46.9556 2.44034 47.2937 2.36932 47.7198 2.36932C48.271 2.36932 48.7567 2.5071 49.1772 2.78267C49.5977 3.05824 49.9258 3.44886 50.1616 3.95455C50.3974 4.46023 50.5153 5.05682 50.5153 5.74432C50.5153 6.4375 50.3974 7.03835 50.1616 7.54688C49.9258 8.05256 49.5991 8.4446 49.1815 8.72301C48.7638 8.99858 48.2823 9.13636 47.7369 9.13636C47.3164 9.13636 46.9798 9.06676 46.7269 8.92756C46.4741 8.78551 46.2795 8.625 46.1431 8.44602C46.0067 8.2642 45.9016 8.11364 45.8278 7.99432H45.7425V11.4545H44.7369ZM45.7255 5.72727C45.7255 6.22159 45.7979 6.65767 45.9428 7.03551C46.0877 7.41051 46.2994 7.70455 46.5778 7.91761C46.8562 8.12784 47.1971 8.23295 47.6005 8.23295C48.021 8.23295 48.3718 8.12216 48.6531 7.90057C48.9371 7.67614 49.1502 7.375 49.2923 6.99716C49.4371 6.61648 49.5096 6.19318 49.5096 5.72727C49.5096 5.26705 49.4386 4.85227 49.2965 4.48295C49.1573 4.1108 48.9457 3.81676 48.6616 3.60085C48.3803 3.3821 48.0266 3.27273 47.6005 3.27273C47.1914 3.27273 46.8477 3.37642 46.5692 3.58381C46.2908 3.78835 46.0806 4.07528 45.9386 4.4446C45.7965 4.81108 45.7255 5.23864 45.7255 5.72727ZM52.0494 9V2.45455H53.055V9H52.0494ZM52.5607 1.36364C52.3647 1.36364 52.1957 1.29688 52.0536 1.16335C51.9144 1.02983 51.8448 0.869318 51.8448 0.681818C51.8448 0.494318 51.9144 0.333807 52.0536 0.200284C52.1957 0.0667613 52.3647 0 52.5607 0C52.7567 0 52.9244 0.0667613 53.0636 0.200284C53.2056 0.333807 53.2766 0.494318 53.2766 0.681818C53.2766 0.869318 53.2056 1.02983 53.0636 1.16335C52.9244 1.29688 52.7567 1.36364 52.5607 1.36364ZM55.63 9.06818C55.4197 9.06818 55.2393 8.9929 55.0888 8.84233C54.9382 8.69176 54.8629 8.51136 54.8629 8.30114C54.8629 8.09091 54.9382 7.91051 55.0888 7.75994C55.2393 7.60937 55.4197 7.53409 55.63 7.53409C55.8402 7.53409 56.0206 7.60937 56.1712 7.75994C56.3217 7.91051 56.397 8.09091 56.397 8.30114C56.397 8.44034 56.3615 8.56818 56.2905 8.68466C56.2223 8.80114 56.13 8.89489 56.0135 8.96591C55.8999 9.03409 55.772 9.06818 55.63 9.06818ZM58.2017 9V2.45455H59.2074V9H58.2017ZM58.7131 1.36364C58.517 1.36364 58.348 1.29688 58.206 1.16335C58.0668 1.02983 57.9972 0.869318 57.9972 0.681818C57.9972 0.494318 58.0668 0.333807 58.206 0.200284C58.348 0.0667613 58.517 0 58.7131 0C58.9091 0 59.0767 0.0667613 59.2159 0.200284C59.358 0.333807 59.429 0.494318 59.429 0.681818C59.429 0.869318 59.358 1.02983 59.2159 1.16335C59.0767 1.29688 58.9091 1.36364 58.7131 1.36364ZM63.7085 9.13636C63.1175 9.13636 62.5991 8.99574 62.1531 8.71449C61.7099 8.43324 61.3633 8.03977 61.1133 7.53409C60.8661 7.02841 60.7425 6.4375 60.7425 5.76136C60.7425 5.07955 60.8661 4.48437 61.1133 3.97585C61.3633 3.46733 61.7099 3.07244 62.1531 2.79119C62.5991 2.50994 63.1175 2.36932 63.7085 2.36932C64.2994 2.36932 64.8164 2.50994 65.2596 2.79119C65.7056 3.07244 66.0522 3.46733 66.2994 3.97585C66.5494 4.48437 66.6744 5.07955 66.6744 5.76136C66.6744 6.4375 66.5494 7.02841 66.2994 7.53409C66.0522 8.03977 65.7056 8.43324 65.2596 8.71449C64.8164 8.99574 64.2994 9.13636 63.7085 9.13636ZM63.7085 8.23295C64.1573 8.23295 64.5266 8.1179 64.8164 7.88778C65.1062 7.65767 65.3207 7.35511 65.4599 6.98011C65.5991 6.60511 65.6687 6.19886 65.6687 5.76136C65.6687 5.32386 65.5991 4.91619 65.4599 4.53835C65.3207 4.16051 65.1062 3.85511 64.8164 3.62216C64.5266 3.3892 64.1573 3.27273 63.7085 3.27273C63.2596 3.27273 62.8903 3.3892 62.6005 3.62216C62.3107 3.85511 62.0962 4.16051 61.957 4.53835C61.8178 4.91619 61.7482 5.32386 61.7482 5.76136C61.7482 6.19886 61.8178 6.60511 61.957 6.98011C62.0962 7.35511 62.3107 7.65767 62.6005 7.88778C62.8903 8.1179 63.2596 8.23295 63.7085 8.23295Z" fill="white"/>
</svg>
