<svg width="220" height="220" viewBox="0 0 220 220" fill="none" xmlns="http://www.w3.org/2000/svg">
<g clip-path="url(#clip0_805_3)">
<rect width="220" height="220" rx="37" fill="#FF5151"/>
<rect x="4" y="4" width="212" height="212" rx="33" stroke="black" stroke-opacity="0.25" stroke-width="8"/>
<path d="M111.587 31.0303C135.164 27.2657 160.251 29.3946 184.359 29.7863C201.103 36.4127 219.475 41.5954 227.484 58.3994C235.61 75.4466 225.711 97.7044 216.778 112.545C206.023 130.406 190.667 146.615 174.84 159.972C156.986 175.039 132.901 192.3 109.208 196.332C77.8827 201.663 47.6134 188.436 29.3001 163.035C14.4065 142.377 -1.3238 107.943 11.6529 82.4091C27.64 50.9518 79.949 36.0822 111.587 31.0303Z" fill="white"/>
<path fill-rule="evenodd" clip-rule="evenodd" d="M158.697 16.4698C160.825 13.8228 164.708 13.3936 167.37 15.5113C172.077 19.2579 178.003 22.0671 184.821 24.8008C186.671 24.8263 188.513 24.8409 190.341 24.8409C193.131 24.8409 195.487 26.6811 196.252 29.2074C201.392 31.209 206.654 33.4035 211.459 36.0393C219.848 40.6406 227.627 46.9563 232.381 56.9103C237.333 67.2832 236.587 78.7749 233.813 89.0472C231.023 99.3716 225.99 109.201 221.366 116.867C210.137 135.486 194.226 152.197 178.034 165.837C160.105 180.939 134.85 199.239 109.309 203.575C75.4809 209.321 42.8398 195.022 23.1753 167.797C15.4163 157.056 7.36638 142.65 2.94119 127.423C-1.4656 112.26 -2.49091 95.4923 4.99551 80.7888C13.9892 63.1248 32.7334 50.7997 52.2263 42.333C71.9185 33.7797 93.491 28.6845 109.679 26.1045C125.644 23.5598 142.373 23.6207 158.641 24.0717C156.928 21.8818 156.878 18.7319 158.697 16.4698ZM182.362 37.0387C177.047 36.9419 171.76 36.7725 166.508 36.6045C147.671 36.0015 129.279 35.4129 111.631 38.2257C96.1106 40.6995 75.6171 45.5686 57.1642 53.5832C38.5124 61.6845 23.033 72.5311 16.0046 86.3355C10.4857 97.1747 10.8402 110.402 14.7962 124.014C18.7337 137.561 26.0294 150.712 33.197 160.634C50.2397 184.23 78.271 196.394 107.232 191.475C129.18 187.748 152.201 171.512 170.06 156.468C185.591 143.384 200.463 127.665 210.784 110.551C215.117 103.371 219.52 94.644 221.894 85.8609C224.281 77.0257 224.424 68.858 221.234 62.1775C217.96 55.3218 212.521 50.64 205.501 46.7894C200.01 43.7776 194.02 41.4964 187.607 39.0539C185.888 38.3994 184.139 37.7333 182.362 37.0387Z" fill="#FF5151"/>
<path d="M189.95 17.5375C188.542 17.5375 187.125 17.5287 185.697 17.5124C179.535 14.9739 174.675 12.5316 170.936 9.53089C165.643 5.28395 157.919 6.14465 153.684 11.4533C152.442 13.0097 151.638 14.7741 151.256 16.5979C137.262 16.3515 122.773 16.6287 108.751 18.8819C92.3187 21.5224 70.3259 26.745 50.1233 35.5916C30.3172 44.2645 10.0505 57.3648 0.12788 77.0123C-8.2975 93.6951 -6.94264 112.285 -2.33616 128.265C2.30775 144.374 10.6893 159.45 18.7007 170.632C39.5626 199.751 74.32 215.16 110.388 208.984C137.576 204.329 163.807 184.945 181.675 169.77C198.109 155.816 214.449 138.562 226.073 119.136C230.817 111.205 236.132 100.797 239.113 89.672C242.067 78.6533 243.112 65.4625 237.307 53.2088C231.844 41.6728 222.941 34.5211 213.918 29.5317C209.508 27.0937 204.811 25.0419 200.3 23.2261C198.12 19.8081 194.305 17.5375 189.95 17.5375Z" stroke="white" stroke-width="10" stroke-linecap="round"/>
<path d="M75.2363 166.309C74.6727 166.028 73.6865 165.253 72.2776 163.985C71.0096 162.717 69.7416 161.308 68.4736 159.758C67.2056 158.067 66.3602 156.799 65.9376 155.954C65.5149 155.249 65.5149 153.981 65.9376 152.15C66.5011 150.318 67.0647 149.403 67.6282 149.403C68.0509 149.684 68.6145 149.191 69.3189 147.923C70.0234 146.655 70.7278 145.317 71.4323 143.908C72.1367 142.358 72.4889 141.442 72.4889 141.16C72.6298 140.597 72.9821 140.174 73.5456 139.892C74.2501 139.47 74.8841 139.047 75.4476 138.624C76.1521 137.497 77.0679 136.37 78.195 135.243C79.463 133.975 80.4492 132.918 81.1537 132.073C82.2808 130.664 84.3237 128.551 87.2824 125.733C90.2411 122.915 93.1293 120.027 95.9472 117.068C98.9058 113.828 101.512 111.01 103.767 108.615C106.021 106.079 107.218 104.318 107.359 103.331C107.359 103.331 107.571 103.12 107.993 102.697C108.557 102.134 109.191 101.641 109.895 101.218C110.6 100.795 111.516 100.091 112.643 99.1047C113.911 98.1185 114.967 97.2027 115.813 96.3574C116.094 95.2302 116.728 93.9622 117.715 92.5533C118.842 91.0035 120.11 89.5242 121.519 88.1153C122.646 86.4246 123.703 84.593 124.689 82.6206C125.675 80.5072 126.309 78.9574 126.591 77.9712C127.013 76.4214 126.873 75.5056 126.168 75.2238C125.464 74.8012 123.562 74.0967 120.462 73.1105C117.081 71.9834 113.911 71.772 110.952 72.4765C107.993 73.1809 104.048 75.2943 99.1172 78.8165C97.1447 79.2392 95.3131 79.8028 93.6225 80.5072C92.0727 81.2117 90.7342 81.4935 89.6071 81.3526C89.0435 81.0708 88.4095 80.4368 87.7051 79.4505C87.0006 78.4643 86.2257 77.5485 85.3804 76.7032L83.267 67.6158L89.8184 64.0231C95.5949 60.3599 101.09 57.6126 106.303 55.781C111.656 53.8085 116.306 53.4563 120.251 54.7243C121.8 54.7243 123.209 54.9357 124.477 55.3583C125.745 55.6401 126.379 55.781 126.379 55.781C127.507 55.6401 129.127 56.2037 131.24 57.4717C133.494 58.7397 135.678 60.3599 137.792 62.3324C140.046 64.3049 141.596 66.2773 142.441 68.2498C144.695 71.6311 145.54 75.717 144.977 80.5072C144.413 85.2975 142.37 90.2991 138.848 95.512C138.144 96.3574 136.594 98.1185 134.199 100.795C131.804 103.472 129.056 106.501 125.957 109.883C122.998 113.123 120.251 116.012 117.715 118.548C115.32 121.084 113.77 122.704 113.065 123.408C112.079 123.831 110.388 125.169 107.993 127.424C105.739 129.678 103.273 132.214 100.597 135.032C98.0605 137.709 95.8767 140.104 94.0451 142.217C92.3545 144.19 91.65 145.176 91.9318 145.176C91.7909 145.739 92.4953 145.739 94.0451 145.176C95.7358 144.471 97.2152 143.908 98.4832 143.485C100.597 142.781 103.062 142.147 105.88 141.583C108.839 140.879 111.797 140.315 114.756 139.892C117.715 139.47 120.251 139.188 122.364 139.047C124.618 138.906 125.957 139.047 126.379 139.47C126.661 140.174 126.873 140.456 127.013 140.315C127.295 140.033 127.436 139.892 127.436 139.892C127.718 138.906 129.479 138.624 132.719 139.047C136.101 139.47 139.13 140.104 141.807 140.949C143.357 141.372 144.554 141.935 145.4 142.64C146.386 143.344 146.879 143.978 146.879 144.542C146.879 144.542 147.02 144.894 147.302 145.598C147.724 146.162 148.358 146.937 149.204 147.923C151.458 149.755 151.458 151.727 149.204 153.841C147.09 155.954 143.216 156.517 137.58 155.531C133.917 155.531 130.888 155.743 128.493 156.165C127.929 156.447 126.732 156.588 124.9 156.588C123.069 156.588 121.307 156.658 119.617 156.799C117.081 156.517 114.545 156.658 112.009 157.222C109.473 157.645 106.443 158.419 102.921 159.547C101.653 159.969 99.6807 160.603 97.0038 161.449C94.3269 162.294 91.4387 163.139 88.3391 163.985C85.2395 164.83 82.4217 165.464 79.8857 165.887C77.4905 166.309 75.9408 166.45 75.2363 166.309Z" fill="#FF5151"/>
</g>
<defs>
<clipPath id="clip0_805_3">
<rect width="220" height="220" rx="37" fill="white"/>
</clipPath>
</defs>
</svg>
