<svg width="126" height="126" viewBox="0 0 126 126" fill="none" xmlns="http://www.w3.org/2000/svg">
<g clip-path="url(#clip0_720_2)">
<rect width="126" height="126" rx="20" fill="#FF5151"/>
<rect x="2" y="2" width="122" height="122" rx="18" stroke="#AE3737" stroke-width="4"/>
<path d="M64.1385 20.1985C76.9984 18.1451 90.6824 19.3063 103.832 19.52C112.965 23.1344 122.986 25.9613 127.355 35.1271C131.787 44.4256 126.388 56.5662 121.515 64.661C115.649 74.4033 107.273 83.2449 98.6399 90.5303C88.9012 98.7487 75.7639 108.164 62.8407 110.363C45.7541 113.271 29.2436 106.056 19.2545 92.201C11.1307 80.9329 2.55056 62.1508 9.62874 48.2233C18.349 31.0648 46.8812 22.9541 64.1385 20.1985Z" fill="white"/>
<path fill-rule="evenodd" clip-rule="evenodd" d="M89.8345 12.2566C90.9956 10.8128 93.1133 10.5787 94.5652 11.7338C97.1331 13.7774 100.365 15.3097 104.084 16.8008C105.093 16.8147 106.098 16.8227 107.095 16.8227C108.617 16.8227 109.902 17.8264 110.319 19.2044C113.123 20.2962 115.993 21.4932 118.614 22.9309C123.19 25.4407 127.433 28.8856 130.026 34.3151C132.727 39.973 132.32 46.2412 130.807 51.8443C129.285 57.4758 126.54 62.8371 124.018 67.0185C117.893 77.1744 109.214 86.2896 100.382 93.7296C90.6025 101.967 76.8271 111.949 62.8957 114.314C44.4441 117.448 26.6399 109.649 15.9138 94.7989C11.6816 88.9399 7.29075 81.0821 4.87701 72.7764C2.47331 64.5058 1.91405 55.3598 5.99755 47.3397C10.9032 37.7048 21.1273 30.982 31.7598 26.3638C42.501 21.6984 54.2678 18.9192 63.0976 17.5119C71.8056 16.1239 80.9305 16.1571 89.8042 16.4031C88.8699 15.2086 88.8423 13.4905 89.8345 12.2566ZM102.743 23.476C99.8438 23.4232 96.9601 23.3308 94.0953 23.2392C83.8208 22.9103 73.7887 22.5892 64.1624 24.1235C55.6967 25.4728 44.5184 28.1287 34.4532 32.5003C24.2795 36.9192 15.8362 42.8355 12.0025 50.3652C8.9922 56.2775 9.18558 63.4921 11.3434 70.9169C13.4911 78.3066 17.4706 85.4794 21.3802 90.8918C30.6762 103.762 45.966 110.397 61.7628 107.714C73.7348 105.681 86.2912 96.8251 96.0326 88.6192C104.504 81.4826 112.616 72.9083 118.246 63.5734C120.609 59.6572 123.011 54.8971 124.306 50.1063C125.608 45.2871 125.686 40.832 123.946 37.1881C122.16 33.4486 119.193 30.8949 115.364 28.7946C112.369 27.1518 109.102 25.9075 105.604 24.5752C104.666 24.2182 103.712 23.8549 102.743 23.476Z" fill="#FF5151"/>
<path d="M106.882 12.8388C106.114 12.8388 105.341 12.834 104.562 12.8251C101.201 11.4405 98.5502 10.1083 96.5103 8.47157C93.6234 6.15506 89.4103 6.62453 87.1005 9.52017C86.423 10.3691 85.9845 11.3315 85.7762 12.3263C78.1427 12.1919 70.2399 12.3431 62.5917 13.5721C53.6284 15.0124 41.6323 17.8611 30.6127 22.6865C19.8094 27.4172 8.75481 34.5628 3.34248 45.2796C-1.25318 54.3793 -0.514166 64.5192 1.99846 73.2355C4.5315 82.0225 9.10328 90.2456 13.4731 96.3449C24.8523 112.228 43.8109 120.633 63.4841 117.264C78.3141 114.725 92.6218 104.152 102.368 95.8749C111.332 88.2635 120.245 78.852 126.585 68.2564C129.173 63.9304 132.072 58.2532 133.698 52.1849C135.309 46.1747 135.879 38.9797 132.713 32.2959C129.733 26.0035 124.877 22.1026 119.955 19.3811C117.55 18.0513 114.988 16.9321 112.527 15.9417C111.338 14.0773 109.257 12.8388 106.882 12.8388Z" stroke="white" stroke-width="10" stroke-linecap="round"/>
<path d="M53.876 98.59C52.844 98.3033 52.0127 98.0453 51.382 97.816C50.7513 97.644 50.436 97.558 50.436 97.558C50.5507 97.2713 50.4933 97.0133 50.264 96.784C50.092 96.5547 49.6907 96.4113 49.06 96.354C48.2 95.7807 47.3113 94.978 46.394 93.946C45.4767 92.914 44.674 91.8533 43.986 90.764C43.298 89.6747 42.8393 88.872 42.61 88.356C42.2087 87.496 42.2373 86.98 42.696 86.808C43.1547 86.5787 43.6993 86.3207 44.33 86.034C44.9607 85.5753 45.62 85.2313 46.308 85.002C47.0533 84.7727 47.6553 85.1453 48.114 86.12C48.8593 87.4387 50.006 88.5567 51.554 89.474C53.1593 90.3913 54.9653 90.936 56.972 91.108C59.036 91.28 61.1 90.936 63.164 90.076C64.54 89.4453 65.2853 88.5853 65.4 87.496C65.5147 86.3493 65.0847 85.0307 64.11 83.54C63.938 83.0813 63.68 82.7087 63.336 82.422C63.0493 82.1353 62.5907 81.7627 61.96 81.304C61.3867 80.8453 60.5553 80.1 59.466 79.068C58.606 78.6667 57.8033 78.294 57.058 77.95C56.37 77.606 55.6247 77.2333 54.822 76.832C53.9047 76.3733 52.8727 75.7427 51.726 74.94C50.5793 74.08 49.5187 73.1627 48.544 72.188C47.5693 71.156 46.824 70.1813 46.308 69.264C45.3907 68.404 44.8173 67.2287 44.588 65.738C44.3587 64.19 44.3873 62.556 44.674 60.836C45.018 59.116 45.5627 57.568 46.308 56.192C46.652 55.3893 47.2827 54.3573 48.2 53.096C49.1173 51.7773 50.1493 50.43 51.296 49.054C52.4427 47.678 53.532 46.4453 54.564 45.356C55.6533 44.2093 56.5133 43.4353 57.144 43.034C57.6027 42.5753 58.09 42.1167 58.606 41.658C59.122 41.142 59.38 40.884 59.38 40.884C59.4373 40.5973 59.5233 40.454 59.638 40.454C59.81 40.454 59.896 40.454 59.896 40.454C60.1827 40.282 60.8133 39.9953 61.788 39.594C62.7627 39.1927 63.8233 38.4473 64.97 37.358C68.8113 35.5233 72.0793 34.2907 74.774 33.66C77.4687 32.972 79.59 32.628 81.138 32.628C82.5713 32.6853 83.976 33.0867 85.352 33.832C86.728 34.52 87.9033 35.4087 88.878 36.498C89.91 37.5873 90.512 38.82 90.684 40.196C91.0853 41.572 90.8847 43.2347 90.082 45.184C89.3367 47.076 88.276 48.882 86.9 50.602C85.5813 52.2647 84.2053 53.4973 82.772 54.3C81.1667 54.988 79.7907 55.074 78.644 54.558C77.5547 54.042 77.0387 53.2393 77.096 52.15C77.096 51.6913 77.2393 51.1467 77.526 50.516C77.87 49.8853 78.7587 48.7673 80.192 47.162C82.0267 44.4673 83.0013 42.5467 83.116 41.4C83.2307 40.2533 82.7147 39.594 81.568 39.422C81.224 39.3073 80.5647 39.336 79.59 39.508C78.6153 39.68 77.5547 39.9093 76.408 40.196C75.3187 40.4253 74.344 40.6833 73.484 40.97C72.6813 41.2567 72.28 41.4573 72.28 41.572C72.28 41.572 72.28 41.658 72.28 41.83C72.28 42.002 72.1653 42.0593 71.936 42.002C71.8213 42.002 71.42 42.2027 70.732 42.604C70.1013 42.948 69.3273 43.4067 68.41 43.98C67.4927 44.5533 66.5753 45.1553 65.658 45.786C64.798 46.3593 64.0527 46.8753 63.422 47.334C62.7913 47.7927 62.4473 48.0793 62.39 48.194C62.2753 48.8247 61.616 49.398 60.412 49.914C59.2653 50.602 58.262 51.5767 57.402 52.838C56.542 54.0993 55.5387 55.7047 54.392 57.654C53.4173 58.9727 52.7293 60.406 52.328 61.954C51.9267 63.4447 51.9267 64.6487 52.328 65.566C52.6147 66.4833 53.3887 67.4007 54.65 68.318C55.9687 69.178 57.746 70.2673 59.982 71.586C61.9313 72.6753 63.766 73.822 65.486 75.026C67.206 76.23 68.668 77.4053 69.872 78.552C71.076 79.6413 71.85 80.5587 72.194 81.304C72.882 82.2787 73.2833 83.3967 73.398 84.658C73.57 85.9193 73.57 87.152 73.398 88.356C73.2833 89.5027 73.1113 90.4487 72.882 91.194C72.4807 92.1113 71.85 93.086 70.99 94.118C70.1873 95.15 69.442 95.6373 68.754 95.58C68.1233 95.752 67.636 95.9527 67.292 96.182C67.0053 96.4113 66.6613 96.612 66.26 96.784C65.8587 97.0133 64.9127 97.2713 63.422 97.558C61.9313 97.902 60.2973 98.16 58.52 98.332C56.7427 98.5613 55.1947 98.6473 53.876 98.59Z" fill="#FF5151"/>
</g>
<defs>
<clipPath id="clip0_720_2">
<rect width="126" height="126" rx="20" fill="white"/>
</clipPath>
</defs>
</svg>
